<control>label_cc74=CutOff label_cc71=Resonance set_hdcc74=0.5 set_hdcc71=0.5 label_cc76=Vibrato Rate label_cc77=Vibrato Depth label_cc78=Vibrato Delay set_hdcc76=0.32 set_hdcc77=0.5 set_hdcc78=0.1 set_cc16=127 label_cc16=TC Mute Gt set_cc17=127 label_cc17=No Wave set_cc18=127 label_cc18=No Wave set_cc19=127 label_cc19=No Wave
<group>lovel=1 hivel=127 volume=12 amp_velcurve_0=0 amp_velcurve_1=1 amp_velcurve_127=1 pitch_oncc136=0 fil_type=lpf_2p cutoff=11025 cutoff_cc74=6912 cutoff_curvecc74=1 cutoff_cc133=0 cutoff_curvecc133=133 eg4_cutoff=-9945.6377953 fil2_type=lpf_4p cutoff2=22050 eg4_sustain=4 resonance_oncc71=40 resonance_curvecc71=1 resonance=0 resonance_oncc131=0 group_amplitude=85.0393701 volume_curvecc131=201 volume_oncc131=25.3968254 pan_keytrack=0 pan_oncc136=0 eg9_sustain=2 eg9_time1=0 eg9_time1_oncc78=5 eg9_level1=0 eg9_time2=0 eg9_time2_oncc78=5 eg9_level2=1 eg9_level2_oncc77=-2 lfo9_wave=1 lfo9_delay=0 lfo9_delay_oncc78=5 lfo9_fade=0 lfo9_fade_oncc78=5 lfo9_freq=0 lfo9_freq_oncc76=20 lfo9_pitch=0 lfo9_pitch_oncc77=555 lfo9_pitch_curvecc77=77 eg9_pitch_oncc77=3.5
<region>sample=../Sample/Wave532.wav lokey=0 hikey=0 pitch_keycenter=46 tune=42 loop_mode=loop_continuous loop_start=6423 loop_end=7198 pan=0 eg2_cutoff=17328 eg2_sustain=4 eg2_time1=0 eg2_time2=0 eg2_time3=0.9300701 eg2_time4=18.286601 eg2_time5=14.4970553 eg2_level1=0 eg2_level2=1 eg2_level3=0.7874016 eg2_level4=0 eg2_level5=1 eg3_amplitude=100 eg3_sustain=4 eg3_time1=0 eg3_time2=0 eg3_time3=1.3489817 eg3_time4=16.2046226 eg3_time5=0.4663324 eg3_level1=0 eg3_level2=1 eg3_level3=0.7236346 eg3_level4=0.6299605 eg3_level5=0 amplitude_cc16=100 ampeg_attack=0 ampeg_release=0.4663324 eg4_time1=0 eg4_time2=0 eg4_time3=1.3489817 eg4_time4=16.2046226 eg4_time5=0.4663324 eg4_level1=1 eg4_level2=1 eg4_level3=1 eg4_level4=1 eg4_level5=1
<region>sample=../Sample/Wave532.wav lokey=1 hikey=1 pitch_keycenter=46 tune=42 loop_mode=loop_continuous loop_start=6423 loop_end=7198 pan=0 eg2_cutoff=17328 eg2_sustain=4 eg2_time1=0 eg2_time2=0 eg2_time3=0.921881 eg2_time4=18.1255909 eg2_time5=14.3694114 eg2_level1=0 eg2_level2=1 eg2_level3=0.7874016 eg2_level4=0 eg2_level5=1 eg3_amplitude=100 eg3_sustain=4 eg3_time1=0 eg3_time2=0 eg3_time3=1.3253313 eg3_time4=15.9205215 eg3_time5=0.4581566 eg3_level1=0 eg3_level2=1 eg3_level3=0.7236346 eg3_level4=0.6299605 eg3_level5=0 amplitude_cc16=100 ampeg_attack=0 ampeg_release=0.4581566 eg4_time1=0 eg4_time2=0 eg4_time3=1.3253313 eg4_time4=15.9205215 eg4_time5=0.4581566 eg4_level1=1 eg4_level2=1 eg4_level3=1 eg4_level4=1 eg4_level5=1
<region>sample=../Sample/Wave532.wav lokey=2 hikey=2 pitch_keycenter=46 tune=42 loop_mode=loop_continuous loop_start=6423 loop_end=7198 pan=0 eg2_cutoff=17328 eg2_sustain=4 eg2_time1=0 eg2_time2=0 eg2_time3=0.913764 eg2_time4=17.9659985 eg2_time5=14.2428914 eg2_level1=0 eg2_level2=1 eg2_level3=0.7874016 eg2_level4=0 eg2_level5=1 eg3_amplitude=100 eg3_sustain=4 eg3_time1=0 eg3_time2=0 eg3_time3=1.3020954 eg3_time4=15.6414013 eg3_time5=0.4501241 eg3_level1=0 eg3_level2=1 eg3_level3=0.7236346 eg3_level4=0.6299605 eg3_level5=0 amplitude_cc16=100 ampeg_attack=0 ampeg_release=0.4501241 eg4_time1=0 eg4_time2=0 eg4_time3=1.3020954 eg4_time4=15.6414013 eg4_time5=0.4501241 eg4_level1=1 eg4_level2=1 eg4_level3=1 eg4_level4=1 eg4_level5=1
<region>sample=../Sample/Wave532.wav lokey=3 hikey=3 pitch_keycenter=46 tune=42 loop_mode=loop_continuous loop_start=6423 loop_end=7198 pan=0 eg2_cutoff=17328 eg2_sustain=4 eg2_time1=0 eg2_time2=0 eg2_time3=0.9057184 eg2_time4=17.8078112 eg2_time5=14.1174854 eg2_level1=0 eg2_level2=1 eg2_level3=0.7874016 eg2_level4=0 eg2_level5=1 eg3_amplitude=100 eg3_sustain=4 eg3_time1=0 eg3_time2=0 eg3_time3=1.2792669 eg3_time4=15.3671747 eg3_time5=0.4422325 eg3_level1=0 eg3_level2=1 eg3_level3=0.7236346 eg3_level4=0.6299605 eg3_level5=0 amplitude_cc16=100 ampeg_attack=0 ampeg_release=0.4422325 eg4_time1=0 eg4_time2=0 eg4_time3=1.2792669 eg4_time4=15.3671747 eg4_time5=0.4422325 eg4_level1=1 eg4_level2=1 eg4_level3=1 eg4_level4=1 eg4_level5=1
<region>sample=../Sample/Wave532.wav lokey=4 hikey=4 pitch_keycenter=46 tune=42 loop_mode=loop_continuous loop_start=6423 loop_end=7198 pan=0 eg2_cutoff=17328 eg2_sustain=4 eg2_time1=0 eg2_time2=0 eg2_time3=0.8977438 eg2_time4=17.6510168 eg2_time5=13.9931836 eg2_level1=0 eg2_level2=1 eg2_level3=0.7874016 eg2_level4=0 eg2_level5=1 eg3_amplitude=100 eg3_sustain=4 eg3_time1=0 eg3_time2=0 eg3_time3=1.2568387 eg3_time4=15.0977558 eg3_time5=0.4344793 eg3_level1=0 eg3_level2=1 eg3_level3=0.7236346 eg3_level4=0.6299605 eg3_level5=0 amplitude_cc16=100 ampeg_attack=0 ampeg_release=0.4344793 eg4_time1=0 eg4_time2=0 eg4_time3=1.2568387 eg4_time4=15.0977558 eg4_time5=0.4344793 eg4_level1=1 eg4_level2=1 eg4_level3=1 eg4_level4=1 eg4_level5=1
<region>sample=../Sample/Wave532.wav lokey=5 hikey=5 pitch_keycenter=46 tune=42 loop_mode=loop_continuous loop_start=6423 loop_end=7198 pan=0 eg2_cutoff=17328 eg2_sustain=4 eg2_time1=0 eg2_time2=0 eg2_time3=0.8898393 eg2_time4=17.4956029 eg2_time5=13.8699763 eg2_level1=0 eg2_level2=1 eg2_level3=0.7874016 eg2_level4=0 eg2_level5=1 eg3_amplitude=100 eg3_sustain=4 eg3_time1=0 eg3_time2=0 eg3_time3=1.2348037 eg3_time4=14.8330604 eg3_time5=0.4268619 eg3_level1=0 eg3_level2=1 eg3_level3=0.7236346 eg3_level4=0.6299605 eg3_level5=0 amplitude_cc16=100 ampeg_attack=0 ampeg_release=0.4268619 eg4_time1=0 eg4_time2=0 eg4_time3=1.2348037 eg4_time4=14.8330604 eg4_time5=0.4268619 eg4_level1=1 eg4_level2=1 eg4_level3=1 eg4_level4=1 eg4_level5=1
<region>sample=../Sample/Wave532.wav lokey=6 hikey=6 pitch_keycenter=46 tune=42 loop_mode=loop_continuous loop_start=6423 loop_end=7198 pan=0 eg2_cutoff=17328 eg2_sustain=4 eg2_time1=0 eg2_time2=0 eg2_time3=0.8820044 eg2_time4=17.3415574 eg2_time5=13.7478537 eg2_level1=0 eg2_level2=1 eg2_level3=0.7874016 eg2_level4=0 eg2_level5=1 eg3_amplitude=100 eg3_sustain=4 eg3_time1=0 eg3_time2=0 eg3_time3=1.213155 eg3_time4=14.5730057 eg3_time5=0.4193781 eg3_level1=0 eg3_level2=1 eg3_level3=0.7236346 eg3_level4=0.6299605 eg3_level5=0 amplitude_cc16=100 ampeg_attack=0 ampeg_release=0.4193781 eg4_time1=0 eg4_time2=0 eg4_time3=1.213155 eg4_time4=14.5730057 eg4_time5=0.4193781 eg4_level1=1 eg4_level2=1 eg4_level3=1 eg4_level4=1 eg4_level5=1
<region>sample=../Sample/Wave532.wav lokey=7 hikey=7 pitch_keycenter=46 tune=42 loop_mode=loop_continuous loop_start=6423 loop_end=7198 pan=0 eg2_cutoff=17328 eg2_sustain=4 eg2_time1=0 eg2_time2=0 eg2_time3=0.8742386 eg2_time4=17.1888682 eg2_time5=13.6268064 eg2_level1=0 eg2_level2=1 eg2_level3=0.7874016 eg2_level4=0 eg2_level5=1 eg3_amplitude=100 eg3_sustain=4 eg3_time1=0 eg3_time2=0 eg3_time3=1.1918858 eg3_time4=14.3175103 eg3_time5=0.4120256 eg3_level1=0 eg3_level2=1 eg3_level3=0.7236346 eg3_level4=0.6299605 eg3_level5=0 amplitude_cc16=100 ampeg_attack=0 ampeg_release=0.4120256 eg4_time1=0 eg4_time2=0 eg4_time3=1.1918858 eg4_time4=14.3175103 eg4_time5=0.4120256 eg4_level1=1 eg4_level2=1 eg4_level3=1 eg4_level4=1 eg4_level5=1
<region>sample=../Sample/Wave532.wav lokey=8 hikey=8 pitch_keycenter=46 tune=42 loop_mode=loop_continuous loop_start=6423 loop_end=7198 pan=0 eg2_cutoff=17328 eg2_sustain=4 eg2_time1=0 eg2_time2=0 eg2_time3=0.866541 eg2_time4=17.0375234 eg2_time5=13.506825 eg2_level1=0 eg2_level2=1 eg2_level3=0.7874016 eg2_level4=0 eg2_level5=1 eg3_amplitude=100 eg3_sustain=4 eg3_time1=0 eg3_time2=0 eg3_time3=1.1709896 eg3_time4=14.0664943 eg3_time5=0.4048019 eg3_level1=0 eg3_level2=1 eg3_level3=0.7236346 eg3_level4=0.6299605 eg3_level5=0 amplitude_cc16=100 ampeg_attack=0 ampeg_release=0.4048019 eg4_time1=0 eg4_time2=0 eg4_time3=1.1709896 eg4_time4=14.0664943 eg4_time5=0.4048019 eg4_level1=1 eg4_level2=1 eg4_level3=1 eg4_level4=1 eg4_level5=1
<region>sample=../Sample/Wave532.wav lokey=9 hikey=9 pitch_keycenter=46 tune=42 loop_mode=loop_continuous loop_start=6423 loop_end=7198 pan=0 eg2_cutoff=17328 eg2_sustain=4 eg2_time1=0 eg2_time2=0 eg2_time3=0.8589113 eg2_time4=16.8875112 eg2_time5=13.3878999 eg2_level1=0 eg2_level2=1 eg2_level3=0.7874016 eg2_level4=0 eg2_level5=1 eg3_amplitude=100 eg3_sustain=4 eg3_time1=0 eg3_time2=0 eg3_time3=1.1504597 eg3_time4=13.8198791 eg3_time5=0.3977049 eg3_level1=0 eg3_level2=1 eg3_level3=0.7236346 eg3_level4=0.6299605 eg3_level5=0 amplitude_cc16=100 ampeg_attack=0 ampeg_release=0.3977049 eg4_time1=0 eg4_time2=0 eg4_time3=1.1504597 eg4_time4=13.8198791 eg4_time5=0.3977049 eg4_level1=1 eg4_level2=1 eg4_level3=1 eg4_level4=1 eg4_level5=1
<region>sample=../Sample/Wave532.wav lokey=10 hikey=10 pitch_keycenter=46 tune=42 loop_mode=loop_continuous loop_start=6423 loop_end=7198 pan=0 eg2_cutoff=17328 eg2_sustain=4 eg2_time1=0 eg2_time2=0 eg2_time3=0.8513488 eg2_time4=16.7388199 eg2_time5=13.2700219 eg2_level1=0 eg2_level2=1 eg2_level3=0.7874016 eg2_level4=0 eg2_level5=1 eg3_amplitude=100 eg3_sustain=4 eg3_time1=0 eg3_time2=0 eg3_time3=1.1302897 eg3_time4=13.5775876 eg3_time5=0.3907323 eg3_level1=0 eg3_level2=1 eg3_level3=0.7236346 eg3_level4=0.6299605 eg3_level5=0 amplitude_cc16=100 ampeg_attack=0 ampeg_release=0.3907323 eg4_time1=0 eg4_time2=0 eg4_time3=1.1302897 eg4_time4=13.5775876 eg4_time5=0.3907323 eg4_level1=1 eg4_level2=1 eg4_level3=1 eg4_level4=1 eg4_level5=1
<region>sample=../Sample/Wave532.wav lokey=11 hikey=11 pitch_keycenter=46 tune=42 loop_mode=loop_continuous loop_start=6423 loop_end=7198 pan=0 eg2_cutoff=17328 eg2_sustain=4 eg2_time1=0 eg2_time2=0 eg2_time3=0.8438528 eg2_time4=16.5914377 eg2_time5=13.1531819 eg2_level1=0 eg2_level2=1 eg2_level3=0.7874016 eg2_level4=0 eg2_level5=1 eg3_amplitude=100 eg3_sustain=4 eg3_time1=0 eg3_time2=0 eg3_time3=1.1104733 eg3_time4=13.3395439 eg3_time5=0.3838819 eg3_level1=0 eg3_level2=1 eg3_level3=0.7236346 eg3_level4=0.6299605 eg3_level5=0 amplitude_cc16=100 ampeg_attack=0 ampeg_release=0.3838819 eg4_time1=0 eg4_time2=0 eg4_time3=1.1104733 eg4_time4=13.3395439 eg4_time5=0.3838819 eg4_level1=1 eg4_level2=1 eg4_level3=1 eg4_level4=1 eg4_level5=1
<region>sample=../Sample/Wave532.wav lokey=12 hikey=12 pitch_keycenter=46 tune=42 loop_mode=loop_continuous loop_start=6423 loop_end=7198 pan=0 eg2_cutoff=17328 eg2_sustain=4 eg2_time1=0 eg2_time2=0 eg2_time3=0.8364228 eg2_time4=16.4453532 eg2_time5=13.0373706 eg2_level1=0 eg2_level2=1 eg2_level3=0.7874016 eg2_level4=0 eg2_level5=1 eg3_amplitude=100 eg3_sustain=4 eg3_time1=0 eg3_time2=0 eg3_time3=1.0910044 eg3_time4=13.1056737 eg3_time5=0.3771516 eg3_level1=0 eg3_level2=1 eg3_level3=0.7236346 eg3_level4=0.6299605 eg3_level5=0 amplitude_cc16=100 ampeg_attack=0 ampeg_release=0.3771516 eg4_time1=0 eg4_time2=0 eg4_time3=1.0910044 eg4_time4=13.1056737 eg4_time5=0.3771516 eg4_level1=1 eg4_level2=1 eg4_level3=1 eg4_level4=1 eg4_level5=1
<region>sample=../Sample/Wave532.wav lokey=13 hikey=13 pitch_keycenter=46 tune=42 loop_mode=loop_continuous loop_start=6423 loop_end=7198 pan=0 eg2_cutoff=17328 eg2_sustain=4 eg2_time1=0 eg2_time2=0 eg2_time3=0.8290583 eg2_time4=16.3005549 eg2_time5=12.922579 eg2_level1=0 eg2_level2=1 eg2_level3=0.7874016 eg2_level4=0 eg2_level5=1 eg3_amplitude=100 eg3_sustain=4 eg3_time1=0 eg3_time2=0 eg3_time3=1.0718768 eg3_time4=12.8759037 eg3_time5=0.3705394 eg3_level1=0 eg3_level2=1 eg3_level3=0.7236346 eg3_level4=0.6299605 eg3_level5=0 amplitude_cc16=100 ampeg_attack=0 ampeg_release=0.3705394 eg4_time1=0 eg4_time2=0 eg4_time3=1.0718768 eg4_time4=12.8759037 eg4_time5=0.3705394 eg4_level1=1 eg4_level2=1 eg4_level3=1 eg4_level4=1 eg4_level5=1
<region>sample=../Sample/Wave532.wav lokey=14 hikey=14 pitch_keycenter=46 tune=42 loop_mode=loop_continuous loop_start=6423 loop_end=7198 pan=0 eg2_cutoff=17328 eg2_sustain=4 eg2_time1=0 eg2_time2=0 eg2_time3=0.8217586 eg2_time4=16.1570316 eg2_time5=12.8087981 eg2_level1=0 eg2_level2=1 eg2_level3=0.7874016 eg2_level4=0 eg2_level5=1 eg3_amplitude=100 eg3_sustain=4 eg3_time1=0 eg3_time2=0 eg3_time3=1.0530845 eg3_time4=12.6501621 eg3_time5=0.364043 eg3_level1=0 eg3_level2=1 eg3_level3=0.7236346 eg3_level4=0.6299605 eg3_level5=0 amplitude_cc16=100 ampeg_attack=0 ampeg_release=0.364043 eg4_time1=0 eg4_time2=0 eg4_time3=1.0530845 eg4_time4=12.6501621 eg4_time5=0.364043 eg4_level1=1 eg4_level2=1 eg4_level3=1 eg4_level4=1 eg4_level5=1
<region>sample=../Sample/Wave532.wav lokey=15 hikey=15 pitch_keycenter=46 tune=42 loop_mode=loop_continuous loop_start=6423 loop_end=7198 pan=0 eg2_cutoff=17328 eg2_sustain=4 eg2_time1=0 eg2_time2=0 eg2_time3=0.8145231 eg2_time4=16.014772 eg2_time5=12.696019 eg2_level1=0 eg2_level2=1 eg2_level3=0.7874016 eg2_level4=0 eg2_level5=1 eg3_amplitude=100 eg3_sustain=4 eg3_time1=0 eg3_time2=0 eg3_time3=1.0346218 eg3_time4=12.4283782 eg3_time5=0.3576606 eg3_level1=0 eg3_level2=1 eg3_level3=0.7236346 eg3_level4=0.6299605 eg3_level5=0 amplitude_cc16=100 ampeg_attack=0 ampeg_release=0.3576606 eg4_time1=0 eg4_time2=0 eg4_time3=1.0346218 eg4_time4=12.4283782 eg4_time5=0.3576606 eg4_level1=1 eg4_level2=1 eg4_level3=1 eg4_level4=1 eg4_level5=1
<region>sample=../Sample/Wave532.wav lokey=16 hikey=16 pitch_keycenter=46 tune=42 loop_mode=loop_continuous loop_start=6423 loop_end=7198 pan=0 eg2_cutoff=17328 eg2_sustain=4 eg2_time1=0 eg2_time2=0 eg2_time3=0.8073514 eg2_time4=15.8737649 eg2_time5=12.5842329 eg2_level1=0 eg2_level2=1 eg2_level3=0.7874016 eg2_level4=0 eg2_level5=1 eg3_amplitude=100 eg3_sustain=4 eg3_time1=0 eg3_time2=0 eg3_time3=1.0164827 eg3_time4=12.2104826 eg3_time5=0.3513901 eg3_level1=0 eg3_level2=1 eg3_level3=0.7236346 eg3_level4=0.6299605 eg3_level5=0 amplitude_cc16=100 ampeg_attack=0 ampeg_release=0.3513901 eg4_time1=0 eg4_time2=0 eg4_time3=1.0164827 eg4_time4=12.2104826 eg4_time5=0.3513901 eg4_level1=1 eg4_level2=1 eg4_level3=1 eg4_level4=1 eg4_level5=1
<region>sample=../Sample/Wave532.wav lokey=17 hikey=17 pitch_keycenter=46 tune=42 loop_mode=loop_continuous loop_start=6423 loop_end=7198 pan=0 eg2_cutoff=17328 eg2_sustain=4 eg2_time1=0 eg2_time2=0 eg2_time3=0.8002428 eg2_time4=15.7339994 eg2_time5=12.4734311 eg2_level1=0 eg2_level2=1 eg2_level3=0.7874016 eg2_level4=0 eg2_level5=1 eg3_amplitude=100 eg3_sustain=4 eg3_time1=0 eg3_time2=0 eg3_time3=0.9986616 eg3_time4=11.9964072 eg3_time5=0.3452295 eg3_level1=0 eg3_level2=1 eg3_level3=0.7236346 eg3_level4=0.6299605 eg3_level5=0 amplitude_cc16=100 ampeg_attack=0 ampeg_release=0.3452295 eg4_time1=0 eg4_time2=0 eg4_time3=0.9986616 eg4_time4=11.9964072 eg4_time5=0.3452295 eg4_level1=1 eg4_level2=1 eg4_level3=1 eg4_level4=1 eg4_level5=1
<region>sample=../Sample/Wave532.wav lokey=18 hikey=18 pitch_keycenter=46 tune=42 loop_mode=loop_continuous loop_start=6423 loop_end=7198 pan=0 eg2_cutoff=17328 eg2_sustain=4 eg2_time1=0 eg2_time2=0 eg2_time3=0.7931969 eg2_time4=15.5954644 eg2_time5=12.3636049 eg2_level1=0 eg2_level2=1 eg2_level3=0.7874016 eg2_level4=0 eg2_level5=1 eg3_amplitude=100 eg3_sustain=4 eg3_time1=0 eg3_time2=0 eg3_time3=0.981153 eg3_time4=11.7860849 eg3_time5=0.3391769 eg3_level1=0 eg3_level2=1 eg3_level3=0.7236346 eg3_level4=0.6299605 eg3_level5=0 amplitude_cc16=100 ampeg_attack=0 ampeg_release=0.3391769 eg4_time1=0 eg4_time2=0 eg4_time3=0.981153 eg4_time4=11.7860849 eg4_time5=0.3391769 eg4_level1=1 eg4_level2=1 eg4_level3=1 eg4_level4=1 eg4_level5=1
<region>sample=../Sample/Wave532.wav lokey=19 hikey=19 pitch_keycenter=46 tune=42 loop_mode=loop_continuous loop_start=6423 loop_end=7198 pan=0 eg2_cutoff=17328 eg2_sustain=4 eg2_time1=0 eg2_time2=0 eg2_time3=0.7862129 eg2_time4=15.4581493 eg2_time5=12.2547457 eg2_level1=0 eg2_level2=1 eg2_level3=0.7874016 eg2_level4=0 eg2_level5=1 eg3_amplitude=100 eg3_sustain=4 eg3_time1=0 eg3_time2=0 eg3_time3=0.9639513 eg3_time4=11.5794501 eg3_time5=0.3332304 eg3_level1=0 eg3_level2=1 eg3_level3=0.7236346 eg3_level4=0.6299605 eg3_level5=0 amplitude_cc16=100 ampeg_attack=0 ampeg_release=0.3332304 eg4_time1=0 eg4_time2=0 eg4_time3=0.9639513 eg4_time4=11.5794501 eg4_time5=0.3332304 eg4_level1=1 eg4_level2=1 eg4_level3=1 eg4_level4=1 eg4_level5=1
<region>sample=../Sample/Wave532.wav lokey=20 hikey=20 pitch_keycenter=46 tune=42 loop_mode=loop_continuous loop_start=6423 loop_end=7198 pan=0 eg2_cutoff=17328 eg2_sustain=4 eg2_time1=0 eg2_time2=0 eg2_time3=0.7792904 eg2_time4=15.3220432 eg2_time5=12.1468449 eg2_level1=0 eg2_level2=1 eg2_level3=0.7874016 eg2_level4=0 eg2_level5=1 eg3_amplitude=100 eg3_sustain=4 eg3_time1=0 eg3_time2=0 eg3_time3=0.9470512 eg3_time4=11.376438 eg3_time5=0.3273882 eg3_level1=0 eg3_level2=1 eg3_level3=0.7236346 eg3_level4=0.6299605 eg3_level5=0 amplitude_cc16=100 ampeg_attack=0 ampeg_release=0.3273882 eg4_time1=0 eg4_time2=0 eg4_time3=0.9470512 eg4_time4=11.376438 eg4_time5=0.3273882 eg4_level1=1 eg4_level2=1 eg4_level3=1 eg4_level4=1 eg4_level5=1
<region>sample=../Sample/Wave532.wav lokey=21 hikey=21 pitch_keycenter=46 tune=42 loop_mode=loop_continuous loop_start=6423 loop_end=7198 pan=0 eg2_cutoff=17328 eg2_sustain=4 eg2_time1=0 eg2_time2=0 eg2_time3=0.7724289 eg2_time4=15.1871355 eg2_time5=12.0398942 eg2_level1=0 eg2_level2=1 eg2_level3=0.7874016 eg2_level4=0 eg2_level5=1 eg3_amplitude=100 eg3_sustain=4 eg3_time1=0 eg3_time2=0 eg3_time3=0.9304474 eg3_time4=11.1769852 eg3_time5=0.3216483 eg3_level1=0 eg3_level2=1 eg3_level3=0.7236346 eg3_level4=0.6299605 eg3_level5=0 amplitude_cc16=100 ampeg_attack=0 ampeg_release=0.3216483 eg4_time1=0 eg4_time2=0 eg4_time3=0.9304474 eg4_time4=11.1769852 eg4_time5=0.3216483 eg4_level1=1 eg4_level2=1 eg4_level3=1 eg4_level4=1 eg4_level5=1
<region>sample=../Sample/Wave532.wav lokey=22 hikey=22 pitch_keycenter=46 tune=42 loop_mode=loop_continuous loop_start=6423 loop_end=7198 pan=0 eg2_cutoff=17328 eg2_sustain=4 eg2_time1=0 eg2_time2=0 eg2_time3=0.7656279 eg2_time4=15.0534156 eg2_time5=11.9338852 eg2_level1=0 eg2_level2=1 eg2_level3=0.7874016 eg2_level4=0 eg2_level5=1 eg3_amplitude=100 eg3_sustain=4 eg3_time1=0 eg3_time2=0 eg3_time3=0.9141347 eg3_time4=10.9810291 eg3_time5=0.3160092 eg3_level1=0 eg3_level2=1 eg3_level3=0.7236346 eg3_level4=0.6299605 eg3_level5=0 amplitude_cc16=100 ampeg_attack=0 ampeg_release=0.3160092 eg4_time1=0 eg4_time2=0 eg4_time3=0.9141347 eg4_time4=10.9810291 eg4_time5=0.3160092 eg4_level1=1 eg4_level2=1 eg4_level3=1 eg4_level4=1 eg4_level5=1
<region>sample=../Sample/Wave532.wav lokey=23 hikey=23 pitch_keycenter=46 tune=42 loop_mode=loop_continuous loop_start=6423 loop_end=7198 pan=0 eg2_cutoff=17328 eg2_sustain=4 eg2_time1=0 eg2_time2=0 eg2_time3=0.7588866 eg2_time4=14.9208731 eg2_time5=11.8288096 eg2_level1=0 eg2_level2=1 eg2_level3=0.7874016 eg2_level4=0 eg2_level5=1 eg3_amplitude=100 eg3_sustain=4 eg3_time1=0 eg3_time2=0 eg3_time3=0.898108 eg3_time4=10.7885086 eg3_time5=0.3104689 eg3_level1=0 eg3_level2=1 eg3_level3=0.7236346 eg3_level4=0.6299605 eg3_level5=0 amplitude_cc16=100 ampeg_attack=0 ampeg_release=0.3104689 eg4_time1=0 eg4_time2=0 eg4_time3=0.898108 eg4_time4=10.7885086 eg4_time5=0.3104689 eg4_level1=1 eg4_level2=1 eg4_level3=1 eg4_level4=1 eg4_level5=1
<region>sample=../Sample/Wave532.wav lokey=24 hikey=24 pitch_keycenter=46 tune=42 loop_mode=loop_continuous loop_start=6423 loop_end=7198 pan=0 eg2_cutoff=17328 eg2_sustain=4 eg2_time1=0 eg2_time2=0 eg2_time3=0.7522048 eg2_time4=14.7894976 eg2_time5=11.7246592 eg2_level1=0 eg2_level2=1 eg2_level3=0.7874016 eg2_level4=0 eg2_level5=1 eg3_amplitude=100 eg3_sustain=4 eg3_time1=0 eg3_time2=0 eg3_time3=0.8823623 eg3_time4=10.5993634 eg3_time5=0.3050257 eg3_level1=0 eg3_level2=1 eg3_level3=0.7236346 eg3_level4=0.6299605 eg3_level5=0 amplitude_cc16=100 ampeg_attack=0 ampeg_release=0.3050257 eg4_time1=0 eg4_time2=0 eg4_time3=0.8823623 eg4_time4=10.5993634 eg4_time5=0.3050257 eg4_level1=1 eg4_level2=1 eg4_level3=1 eg4_level4=1 eg4_level5=1
<region>sample=../Sample/Wave532.wav lokey=25 hikey=25 pitch_keycenter=46 tune=42 loop_mode=loop_continuous loop_start=6423 loop_end=7198 pan=0 eg2_cutoff=17328 eg2_sustain=4 eg2_time1=0 eg2_time2=0 eg2_time3=0.7455818 eg2_time4=14.6592788 eg2_time5=11.6214257 eg2_level1=0 eg2_level2=1 eg2_level3=0.7874016 eg2_level4=0 eg2_level5=1 eg3_amplitude=100 eg3_sustain=4 eg3_time1=0 eg3_time2=0 eg3_time3=0.8668926 eg3_time4=10.4135343 eg3_time5=0.299678 eg3_level1=0 eg3_level2=1 eg3_level3=0.7236346 eg3_level4=0.6299605 eg3_level5=0 amplitude_cc16=100 ampeg_attack=0 ampeg_release=0.299678 eg4_time1=0 eg4_time2=0 eg4_time3=0.8668926 eg4_time4=10.4135343 eg4_time5=0.299678 eg4_level1=1 eg4_level2=1 eg4_level3=1 eg4_level4=1 eg4_level5=1
<region>sample=../Sample/Wave532.wav lokey=26 hikey=26 pitch_keycenter=46 tune=42 loop_mode=loop_continuous loop_start=6423 loop_end=7198 pan=0 eg2_cutoff=17328 eg2_sustain=4 eg2_time1=0 eg2_time2=0 eg2_time3=0.7390171 eg2_time4=14.5302066 eg2_time5=11.5191012 eg2_level1=0 eg2_level2=1 eg2_level3=0.7874016 eg2_level4=0 eg2_level5=1 eg3_amplitude=100 eg3_sustain=4 eg3_time1=0 eg3_time2=0 eg3_time3=0.8516942 eg3_time4=10.2309632 eg3_time5=0.294424 eg3_level1=0 eg3_level2=1 eg3_level3=0.7236346 eg3_level4=0.6299605 eg3_level5=0 amplitude_cc16=100 ampeg_attack=0 ampeg_release=0.294424 eg4_time1=0 eg4_time2=0 eg4_time3=0.8516942 eg4_time4=10.2309632 eg4_time5=0.294424 eg4_level1=1 eg4_level2=1 eg4_level3=1 eg4_level4=1 eg4_level5=1
<region>sample=../Sample/Wave532.wav lokey=27 hikey=27 pitch_keycenter=46 tune=42 loop_mode=loop_continuous loop_start=6423 loop_end=7198 pan=0 eg2_cutoff=17328 eg2_sustain=4 eg2_time1=0 eg2_time2=0 eg2_time3=0.7325101 eg2_time4=14.4022709 eg2_time5=11.4176777 eg2_level1=0 eg2_level2=1 eg2_level3=0.7874016 eg2_level4=0 eg2_level5=1 eg3_amplitude=100 eg3_sustain=4 eg3_time1=0 eg3_time2=0 eg3_time3=0.8367622 eg3_time4=10.0515929 eg3_time5=0.2892621 eg3_level1=0 eg3_level2=1 eg3_level3=0.7236346 eg3_level4=0.6299605 eg3_level5=0 amplitude_cc16=100 ampeg_attack=0 ampeg_release=0.2892621 eg4_time1=0 eg4_time2=0 eg4_time3=0.8367622 eg4_time4=10.0515929 eg4_time5=0.2892621 eg4_level1=1 eg4_level2=1 eg4_level3=1 eg4_level4=1 eg4_level5=1
<region>sample=../Sample/Wave532.wav lokey=28 hikey=28 pitch_keycenter=46 tune=42 loop_mode=loop_continuous loop_start=6423 loop_end=7198 pan=0 eg2_cutoff=17328 eg2_sustain=4 eg2_time1=0 eg2_time2=0 eg2_time3=0.7260605 eg2_time4=14.2754616 eg2_time5=11.3171472 eg2_level1=0 eg2_level2=1 eg2_level3=0.7874016 eg2_level4=0 eg2_level5=1 eg3_amplitude=100 eg3_sustain=4 eg3_time1=0 eg3_time2=0 eg3_time3=0.822092 eg3_time4=9.8753674 eg3_time5=0.2841907 eg3_level1=0 eg3_level2=1 eg3_level3=0.7236346 eg3_level4=0.6299605 eg3_level5=0 amplitude_cc16=100 ampeg_attack=0 ampeg_release=0.2841907 eg4_time1=0 eg4_time2=0 eg4_time3=0.822092 eg4_time4=9.8753674 eg4_time5=0.2841907 eg4_level1=1 eg4_level2=1 eg4_level3=1 eg4_level4=1 eg4_level5=1
<region>sample=../Sample/Wave532.wav lokey=29 hikey=29 pitch_keycenter=46 tune=42 loop_mode=loop_continuous loop_start=6423 loop_end=7198 pan=0 eg2_cutoff=17328 eg2_sustain=4 eg2_time1=0 eg2_time2=0 eg2_time3=0.7196677 eg2_time4=14.1497688 eg2_time5=11.2175018 eg2_level1=0 eg2_level2=1 eg2_level3=0.7874016 eg2_level4=0 eg2_level5=1 eg3_amplitude=100 eg3_sustain=4 eg3_time1=0 eg3_time2=0 eg3_time3=0.807679 eg3_time4=9.7022314 eg3_time5=0.2792083 eg3_level1=0 eg3_level2=1 eg3_level3=0.7236346 eg3_level4=0.6299605 eg3_level5=0 amplitude_cc16=100 ampeg_attack=0 ampeg_release=0.2792083 eg4_time1=0 eg4_time2=0 eg4_time3=0.807679 eg4_time4=9.7022314 eg4_time5=0.2792083 eg4_level1=1 eg4_level2=1 eg4_level3=1 eg4_level4=1 eg4_level5=1
<region>sample=../Sample/Wave532.wav lokey=30 hikey=30 pitch_keycenter=46 tune=42 loop_mode=loop_continuous loop_start=6423 loop_end=7198 pan=0 eg2_cutoff=17328 eg2_sustain=4 eg2_time1=0 eg2_time2=0 eg2_time3=0.7133312 eg2_time4=14.0251827 eg2_time5=11.1187338 eg2_level1=0 eg2_level2=1 eg2_level3=0.7874016 eg2_level4=0 eg2_level5=1 eg3_amplitude=100 eg3_sustain=4 eg3_time1=0 eg3_time2=0 eg3_time3=0.7935187 eg3_time4=9.5321309 eg3_time5=0.2743132 eg3_level1=0 eg3_level2=1 eg3_level3=0.7236346 eg3_level4=0.6299605 eg3_level5=0 amplitude_cc16=100 ampeg_attack=0 ampeg_release=0.2743132 eg4_time1=0 eg4_time2=0 eg4_time3=0.7935187 eg4_time4=9.5321309 eg4_time5=0.2743132 eg4_level1=1 eg4_level2=1 eg4_level3=1 eg4_level4=1 eg4_level5=1
<region>sample=../Sample/Wave532.wav lokey=31 hikey=31 pitch_keycenter=46 tune=42 loop_mode=loop_continuous loop_start=6423 loop_end=7198 pan=0 eg2_cutoff=17328 eg2_sustain=4 eg2_time1=0 eg2_time2=0 eg2_time3=0.7070504 eg2_time4=13.9016936 eg2_time5=11.0208355 eg2_level1=0 eg2_level2=1 eg2_level3=0.7874016 eg2_level4=0 eg2_level5=1 eg3_amplitude=100 eg3_sustain=4 eg3_time1=0 eg3_time2=0 eg3_time3=0.7796066 eg3_time4=9.3650126 eg3_time5=0.2695039 eg3_level1=0 eg3_level2=1 eg3_level3=0.7236346 eg3_level4=0.6299605 eg3_level5=0 amplitude_cc16=100 ampeg_attack=0 ampeg_release=0.2695039 eg4_time1=0 eg4_time2=0 eg4_time3=0.7796066 eg4_time4=9.3650126 eg4_time5=0.2695039 eg4_level1=1 eg4_level2=1 eg4_level3=1 eg4_level4=1 eg4_level5=1
<region>sample=../Sample/Wave532.wav lokey=32 hikey=32 pitch_keycenter=46 tune=42 loop_mode=loop_continuous loop_start=6423 loop_end=7198 pan=0 eg2_cutoff=17328 eg2_sustain=4 eg2_time1=0 eg2_time2=0 eg2_time3=0.700825 eg2_time4=13.7792918 eg2_time5=10.9237991 eg2_level1=0 eg2_level2=1 eg2_level3=0.7874016 eg2_level4=0 eg2_level5=1 eg3_amplitude=100 eg3_sustain=4 eg3_time1=0 eg3_time2=0 eg3_time3=0.7659385 eg3_time4=9.2008243 eg3_time5=0.2647789 eg3_level1=0 eg3_level2=1 eg3_level3=0.7236346 eg3_level4=0.6299605 eg3_level5=0 amplitude_cc16=100 ampeg_attack=0 ampeg_release=0.2647789 eg4_time1=0 eg4_time2=0 eg4_time3=0.7659385 eg4_time4=9.2008243 eg4_time5=0.2647789 eg4_level1=1 eg4_level2=1 eg4_level3=1 eg4_level4=1 eg4_level5=1
<region>sample=../Sample/Wave532.wav lokey=33 hikey=33 pitch_keycenter=46 tune=42 loop_mode=loop_continuous loop_start=6423 loop_end=7198 pan=0 eg2_cutoff=17328 eg2_sustain=4 eg2_time1=0 eg2_time2=0 eg2_time3=0.6946543 eg2_time4=13.6579677 eg2_time5=10.8276171 eg2_level1=0 eg2_level2=1 eg2_level3=0.7874016 eg2_level4=0 eg2_level5=1 eg3_amplitude=100 eg3_sustain=4 eg3_time1=0 eg3_time2=0 eg3_time3=0.75251 eg3_time4=9.0395145 eg3_time5=0.2601368 eg3_level1=0 eg3_level2=1 eg3_level3=0.7236346 eg3_level4=0.6299605 eg3_level5=0 amplitude_cc16=100 ampeg_attack=0 ampeg_release=0.2601368 eg4_time1=0 eg4_time2=0 eg4_time3=0.75251 eg4_time4=9.0395145 eg4_time5=0.2601368 eg4_level1=1 eg4_level2=1 eg4_level3=1 eg4_level4=1 eg4_level5=1
<region>sample=../Sample/Wave532.wav lokey=34 hikey=34 pitch_keycenter=46 tune=42 loop_mode=loop_continuous loop_start=6423 loop_end=7198 pan=0 eg2_cutoff=17328 eg2_sustain=4 eg2_time1=0 eg2_time2=0 eg2_time3=0.688538 eg2_time4=13.5377119 eg2_time5=10.7322819 eg2_level1=0 eg2_level2=1 eg2_level3=0.7874016 eg2_level4=0 eg2_level5=1 eg3_amplitude=100 eg3_sustain=4 eg3_time1=0 eg3_time2=0 eg3_time3=0.7393169 eg3_time4=8.8810328 eg3_time5=0.255576 eg3_level1=0 eg3_level2=1 eg3_level3=0.7236346 eg3_level4=0.6299605 eg3_level5=0 amplitude_cc16=100 ampeg_attack=0 ampeg_release=0.255576 eg4_time1=0 eg4_time2=0 eg4_time3=0.7393169 eg4_time4=8.8810328 eg4_time5=0.255576 eg4_level1=1 eg4_level2=1 eg4_level3=1 eg4_level4=1 eg4_level5=1
<region>sample=../Sample/Wave532.wav lokey=35 hikey=35 pitch_keycenter=46 tune=42 loop_mode=loop_continuous loop_start=6423 loop_end=7198 pan=0 eg2_cutoff=17328 eg2_sustain=4 eg2_time1=0 eg2_time2=0 eg2_time3=0.6824756 eg2_time4=13.4185149 eg2_time5=10.6377862 eg2_level1=0 eg2_level2=1 eg2_level3=0.7874016 eg2_level4=0 eg2_level5=1 eg3_amplitude=100 eg3_sustain=4 eg3_time1=0 eg3_time2=0 eg3_time3=0.7263551 eg3_time4=8.7253297 eg3_time5=0.2510953 eg3_level1=0 eg3_level2=1 eg3_level3=0.7236346 eg3_level4=0.6299605 eg3_level5=0 amplitude_cc16=100 ampeg_attack=0 ampeg_release=0.2510953 eg4_time1=0 eg4_time2=0 eg4_time3=0.7263551 eg4_time4=8.7253297 eg4_time5=0.2510953 eg4_level1=1 eg4_level2=1 eg4_level3=1 eg4_level4=1 eg4_level5=1
<region>sample=../Sample/Wave532.wav lokey=36 hikey=36 pitch_keycenter=46 tune=42 loop_mode=loop_continuous loop_start=6423 loop_end=7198 pan=0 eg2_cutoff=17328 eg2_sustain=4 eg2_time1=0 eg2_time2=0 eg2_time3=0.6764665 eg2_time4=13.3003674 eg2_time5=10.5441225 eg2_level1=0 eg2_level2=1 eg2_level3=0.7874016 eg2_level4=0 eg2_level5=1 eg3_amplitude=100 eg3_sustain=4 eg3_time1=0 eg3_time2=0 eg3_time3=0.7136206 eg3_time4=8.5723563 eg3_time5=0.246693 eg3_level1=0 eg3_level2=1 eg3_level3=0.7236346 eg3_level4=0.6299605 eg3_level5=0 amplitude_cc16=100 ampeg_attack=0 ampeg_release=0.246693 eg4_time1=0 eg4_time2=0 eg4_time3=0.7136206 eg4_time4=8.5723563 eg4_time5=0.246693 eg4_level1=1 eg4_level2=1 eg4_level3=1 eg4_level4=1 eg4_level5=1
<region>sample=../Sample/Wave532.wav lokey=37 hikey=37 pitch_keycenter=46 tune=42 loop_mode=loop_continuous loop_start=6423 loop_end=7198 pan=0 eg2_cutoff=17328 eg2_sustain=4 eg2_time1=0 eg2_time2=0 eg2_time3=0.6705104 eg2_time4=13.1832601 eg2_time5=10.4512835 eg2_level1=0 eg2_level2=1 eg2_level3=0.7874016 eg2_level4=0 eg2_level5=1 eg3_amplitude=100 eg3_sustain=4 eg3_time1=0 eg3_time2=0 eg3_time3=0.7011093 eg3_time4=8.4220649 eg3_time5=0.242368 eg3_level1=0 eg3_level2=1 eg3_level3=0.7236346 eg3_level4=0.6299605 eg3_level5=0 amplitude_cc16=100 ampeg_attack=0 ampeg_release=0.242368 eg4_time1=0 eg4_time2=0 eg4_time3=0.7011093 eg4_time4=8.4220649 eg4_time5=0.242368 eg4_level1=1 eg4_level2=1 eg4_level3=1 eg4_level4=1 eg4_level5=1
<region>sample=../Sample/Wave532.wav lokey=38 hikey=38 pitch_keycenter=46 tune=42 loop_mode=loop_continuous loop_start=6423 loop_end=7198 pan=0 eg2_cutoff=17328 eg2_sustain=4 eg2_time1=0 eg2_time2=0 eg2_time3=0.6646066 eg2_time4=13.067184 eg2_time5=10.3592619 eg2_level1=0 eg2_level2=1 eg2_level3=0.7874016 eg2_level4=0 eg2_level5=1 eg3_amplitude=100 eg3_sustain=4 eg3_time1=0 eg3_time2=0 eg3_time3=0.6888174 eg3_time4=8.2744084 eg3_time5=0.2381188 eg3_level1=0 eg3_level2=1 eg3_level3=0.7236346 eg3_level4=0.6299605 eg3_level5=0 amplitude_cc16=100 ampeg_attack=0 ampeg_release=0.2381188 eg4_time1=0 eg4_time2=0 eg4_time3=0.6888174 eg4_time4=8.2744084 eg4_time5=0.2381188 eg4_level1=1 eg4_level2=1 eg4_level3=1 eg4_level4=1 eg4_level5=1
<region>sample=../Sample/Wave532.wav lokey=39 hikey=39 pitch_keycenter=46 tune=42 loop_mode=loop_continuous loop_start=6423 loop_end=7198 pan=0 eg2_cutoff=17328 eg2_sustain=4 eg2_time1=0 eg2_time2=0 eg2_time3=0.6587549 eg2_time4=12.9521299 eg2_time5=10.2680505 eg2_level1=0 eg2_level2=1 eg2_level3=0.7874016 eg2_level4=0 eg2_level5=1 eg3_amplitude=100 eg3_sustain=4 eg3_time1=0 eg3_time2=0 eg3_time3=0.676741 eg3_time4=8.1293406 eg3_time5=0.233944 eg3_level1=0 eg3_level2=1 eg3_level3=0.7236346 eg3_level4=0.6299605 eg3_level5=0 amplitude_cc16=100 ampeg_attack=0 ampeg_release=0.233944 eg4_time1=0 eg4_time2=0 eg4_time3=0.676741 eg4_time4=8.1293406 eg4_time5=0.233944 eg4_level1=1 eg4_level2=1 eg4_level3=1 eg4_level4=1 eg4_level5=1
<region>sample=../Sample/Wave532.wav lokey=40 hikey=40 pitch_keycenter=46 tune=42 loop_mode=loop_continuous loop_start=6423 loop_end=7198 pan=0 eg2_cutoff=17328 eg2_sustain=4 eg2_time1=0 eg2_time2=0 eg2_time3=0.6529547 eg2_time4=12.8380888 eg2_time5=10.1776422 eg2_level1=0 eg2_level2=1 eg2_level3=0.7874016 eg2_level4=0 eg2_level5=1 eg3_amplitude=100 eg3_sustain=4 eg3_time1=0 eg3_time2=0 eg3_time3=0.6648763 eg3_time4=7.9868162 eg3_time5=0.2298425 eg3_level1=0 eg3_level2=1 eg3_level3=0.7236346 eg3_level4=0.6299605 eg3_level5=0 amplitude_cc16=100 ampeg_attack=0 ampeg_release=0.2298425 eg4_time1=0 eg4_time2=0 eg4_time3=0.6648763 eg4_time4=7.9868162 eg4_time5=0.2298425 eg4_level1=1 eg4_level2=1 eg4_level3=1 eg4_level4=1 eg4_level5=1
<region>sample=../Sample/Wave532.wav lokey=41 hikey=41 pitch_keycenter=46 tune=42 loop_mode=loop_continuous loop_start=6423 loop_end=7198 pan=0 eg2_cutoff=17328 eg2_sustain=4 eg2_time1=0 eg2_time2=0 eg2_time3=0.6472055 eg2_time4=12.7250518 eg2_time5=10.08803 eg2_level1=0 eg2_level2=1 eg2_level3=0.7874016 eg2_level4=0 eg2_level5=1 eg3_amplitude=100 eg3_sustain=4 eg3_time1=0 eg3_time2=0 eg3_time3=0.6532196 eg3_time4=7.8467906 eg3_time5=0.2258129 eg3_level1=0 eg3_level2=1 eg3_level3=0.7236346 eg3_level4=0.6299605 eg3_level5=0 amplitude_cc16=100 ampeg_attack=0 ampeg_release=0.2258129 eg4_time1=0 eg4_time2=0 eg4_time3=0.6532196 eg4_time4=7.8467906 eg4_time5=0.2258129 eg4_level1=1 eg4_level2=1 eg4_level3=1 eg4_level4=1 eg4_level5=1
<region>sample=../Sample/Wave532.wav lokey=42 hikey=42 pitch_keycenter=46 tune=42 loop_mode=loop_continuous loop_start=6423 loop_end=7198 pan=0 eg2_cutoff=17328 eg2_sustain=4 eg2_time1=0 eg2_time2=0 eg2_time3=0.641507 eg2_time4=12.6130101 eg2_time5=9.9992068 eg2_level1=0 eg2_level2=1 eg2_level3=0.7874016 eg2_level4=0 eg2_level5=1 eg3_amplitude=100 eg3_sustain=4 eg3_time1=0 eg3_time2=0 eg3_time3=0.6417673 eg3_time4=7.7092198 eg3_time5=0.2218539 eg3_level1=0 eg3_level2=1 eg3_level3=0.7236346 eg3_level4=0.6299605 eg3_level5=0 amplitude_cc16=100 ampeg_attack=0 ampeg_release=0.2218539 eg4_time1=0 eg4_time2=0 eg4_time3=0.6417673 eg4_time4=7.7092198 eg4_time5=0.2218539 eg4_level1=1 eg4_level2=1 eg4_level3=1 eg4_level4=1 eg4_level5=1
<region>sample=../Sample/Wave533.wav lokey=43 hikey=43 pitch_keycenter=49 tune=30 loop_mode=loop_continuous loop_start=5968 loop_end=6615 pan=0 eg2_cutoff=17328 eg2_sustain=4 eg2_time1=0 eg2_time2=0 eg2_time3=0.6358587 eg2_time4=12.5019549 eg2_time5=9.9111656 eg2_level1=0 eg2_level2=1 eg2_level3=0.7874016 eg2_level4=0 eg2_level5=1 eg3_amplitude=100 eg3_sustain=4 eg3_time1=0 eg3_time2=0 eg3_time3=0.6305158 eg3_time4=7.574061 eg3_time5=0.2179643 eg3_level1=0 eg3_level2=1 eg3_level3=0.7236346 eg3_level4=0.6299605 eg3_level5=0 amplitude_cc16=100 ampeg_attack=0 ampeg_release=0.2179643 eg4_time1=0 eg4_time2=0 eg4_time3=0.6305158 eg4_time4=7.574061 eg4_time5=0.2179643 eg4_level1=1 eg4_level2=1 eg4_level3=1 eg4_level4=1 eg4_level5=1
<region>sample=../Sample/Wave533.wav lokey=44 hikey=44 pitch_keycenter=49 tune=30 loop_mode=loop_continuous loop_start=5968 loop_end=6615 pan=0 eg2_cutoff=17328 eg2_sustain=4 eg2_time1=0 eg2_time2=0 eg2_time3=0.6302601 eg2_time4=12.3918776 eg2_time5=9.8238997 eg2_level1=0 eg2_level2=1 eg2_level3=0.7874016 eg2_level4=0 eg2_level5=1 eg3_amplitude=100 eg3_sustain=4 eg3_time1=0 eg3_time2=0 eg3_time3=0.6194615 eg3_time4=7.4412718 eg3_time5=0.214143 eg3_level1=0 eg3_level2=1 eg3_level3=0.7236346 eg3_level4=0.6299605 eg3_level5=0 amplitude_cc16=100 ampeg_attack=0 ampeg_release=0.214143 eg4_time1=0 eg4_time2=0 eg4_time3=0.6194615 eg4_time4=7.4412718 eg4_time5=0.214143 eg4_level1=1 eg4_level2=1 eg4_level3=1 eg4_level4=1 eg4_level5=1
<region>sample=../Sample/Wave533.wav lokey=45 hikey=45 pitch_keycenter=49 tune=30 loop_mode=loop_continuous loop_start=5968 loop_end=6615 pan=0 eg2_cutoff=17328 eg2_sustain=4 eg2_time1=0 eg2_time2=0 eg2_time3=0.6247107 eg2_time4=12.2827694 eg2_time5=9.7374021 eg2_level1=0 eg2_level2=1 eg2_level3=0.7874016 eg2_level4=0 eg2_level5=1 eg3_amplitude=100 eg3_sustain=4 eg3_time1=0 eg3_time2=0 eg3_time3=0.608601 eg3_time4=7.3108107 eg3_time5=0.2103886 eg3_level1=0 eg3_level2=1 eg3_level3=0.7236346 eg3_level4=0.6299605 eg3_level5=0 amplitude_cc16=100 ampeg_attack=0 ampeg_release=0.2103886 eg4_time1=0 eg4_time2=0 eg4_time3=0.608601 eg4_time4=7.3108107 eg4_time5=0.2103886 eg4_level1=1 eg4_level2=1 eg4_level3=1 eg4_level4=1 eg4_level5=1
<region>sample=../Sample/Wave533.wav lokey=46 hikey=46 pitch_keycenter=49 tune=30 loop_mode=loop_continuous loop_start=5968 loop_end=6615 pan=0 eg2_cutoff=17328 eg2_sustain=4 eg2_time1=0 eg2_time2=0 eg2_time3=0.6192103 eg2_time4=12.1746219 eg2_time5=9.6516661 eg2_level1=0 eg2_level2=1 eg2_level3=0.7874016 eg2_level4=0 eg2_level5=1 eg3_amplitude=100 eg3_sustain=4 eg3_time1=0 eg3_time2=0 eg3_time3=0.597931 eg3_time4=7.1826368 eg3_time5=0.2067 eg3_level1=0 eg3_level2=1 eg3_level3=0.7236346 eg3_level4=0.6299605 eg3_level5=0 amplitude_cc16=100 ampeg_attack=0 ampeg_release=0.2067 eg4_time1=0 eg4_time2=0 eg4_time3=0.597931 eg4_time4=7.1826368 eg4_time5=0.2067 eg4_level1=1 eg4_level2=1 eg4_level3=1 eg4_level4=1 eg4_level5=1
<region>sample=../Sample/Wave533.wav lokey=47 hikey=47 pitch_keycenter=49 tune=30 loop_mode=loop_continuous loop_start=5968 loop_end=6615 pan=0 eg2_cutoff=17328 eg2_sustain=4 eg2_time1=0 eg2_time2=0 eg2_time3=0.6137582 eg2_time4=12.0674266 eg2_time5=9.566685 eg2_level1=0 eg2_level2=1 eg2_level3=0.7874016 eg2_level4=0 eg2_level5=1 eg3_amplitude=100 eg3_sustain=4 eg3_time1=0 eg3_time2=0 eg3_time3=0.587448 eg3_time4=7.0567101 eg3_time5=0.2030762 eg3_level1=0 eg3_level2=1 eg3_level3=0.7236346 eg3_level4=0.6299605 eg3_level5=0 amplitude_cc16=100 ampeg_attack=0 ampeg_release=0.2030762 eg4_time1=0 eg4_time2=0 eg4_time3=0.587448 eg4_time4=7.0567101 eg4_time5=0.2030762 eg4_level1=1 eg4_level2=1 eg4_level3=1 eg4_level4=1 eg4_level5=1
<region>sample=../Sample/Wave534.wav lokey=48 hikey=48 pitch_keycenter=54 tune=46 loop_mode=loop_continuous loop_start=5387 loop_end=5876 pan=0 eg2_cutoff=17328 eg2_sustain=4 eg2_time1=0 eg2_time2=0 eg2_time3=0.6083542 eg2_time4=11.9611752 eg2_time5=9.4824521 eg2_level1=0 eg2_level2=1 eg2_level3=0.7874016 eg2_level4=0 eg2_level5=1 eg3_amplitude=100 eg3_sustain=4 eg3_time1=0 eg3_time2=0 eg3_time3=0.5771488 eg3_time4=6.9329911 eg3_time5=0.1995158 eg3_level1=0 eg3_level2=1 eg3_level3=0.7236346 eg3_level4=0.6299605 eg3_level5=0 amplitude_cc16=100 ampeg_attack=0 ampeg_release=0.1995158 eg4_time1=0 eg4_time2=0 eg4_time3=0.5771488 eg4_time4=6.9329911 eg4_time5=0.1995158 eg4_level1=1 eg4_level2=1 eg4_level3=1 eg4_level4=1 eg4_level5=1
<region>sample=../Sample/Wave534.wav lokey=49 hikey=49 pitch_keycenter=54 tune=46 loop_mode=loop_continuous loop_start=5387 loop_end=5876 pan=0 eg2_cutoff=17328 eg2_sustain=4 eg2_time1=0 eg2_time2=0 eg2_time3=0.6029978 eg2_time4=11.8558593 eg2_time5=9.3989609 eg2_level1=0 eg2_level2=1 eg2_level3=0.7874016 eg2_level4=0 eg2_level5=1 eg3_amplitude=100 eg3_sustain=4 eg3_time1=0 eg3_time2=0 eg3_time3=0.5670302 eg3_time4=6.8114412 eg3_time5=0.1960179 eg3_level1=0 eg3_level2=1 eg3_level3=0.7236346 eg3_level4=0.6299605 eg3_level5=0 amplitude_cc16=100 ampeg_attack=0 ampeg_release=0.1960179 eg4_time1=0 eg4_time2=0 eg4_time3=0.5670302 eg4_time4=6.8114412 eg4_time5=0.1960179 eg4_level1=1 eg4_level2=1 eg4_level3=1 eg4_level4=1 eg4_level5=1
<region>sample=../Sample/Wave534.wav lokey=50 hikey=50 pitch_keycenter=54 tune=46 loop_mode=loop_continuous loop_start=5387 loop_end=5876 pan=0 eg2_cutoff=17328 eg2_sustain=4 eg2_time1=0 eg2_time2=0 eg2_time3=0.5976885 eg2_time4=11.7514707 eg2_time5=9.3162048 eg2_level1=0 eg2_level2=1 eg2_level3=0.7874016 eg2_level4=0 eg2_level5=1 eg3_amplitude=100 eg3_sustain=4 eg3_time1=0 eg3_time2=0 eg3_time3=0.5570889 eg3_time4=6.6920224 eg3_time5=0.1925813 eg3_level1=0 eg3_level2=1 eg3_level3=0.7236346 eg3_level4=0.6299605 eg3_level5=0 amplitude_cc16=100 ampeg_attack=0 ampeg_release=0.1925813 eg4_time1=0 eg4_time2=0 eg4_time3=0.5570889 eg4_time4=6.6920224 eg4_time5=0.1925813 eg4_level1=1 eg4_level2=1 eg4_level3=1 eg4_level4=1 eg4_level5=1
<region>sample=../Sample/Wave534.wav lokey=51 hikey=51 pitch_keycenter=54 tune=46 loop_mode=loop_continuous loop_start=5387 loop_end=5876 pan=0 eg2_cutoff=17328 eg2_sustain=4 eg2_time1=0 eg2_time2=0 eg2_time3=0.592426 eg2_time4=11.6480012 eg2_time5=9.2341774 eg2_level1=0 eg2_level2=1 eg2_level3=0.7874016 eg2_level4=0 eg2_level5=1 eg3_amplitude=100 eg3_sustain=4 eg3_time1=0 eg3_time2=0 eg3_time3=0.547322 eg3_time4=6.5746972 eg3_time5=0.1892049 eg3_level1=0 eg3_level2=1 eg3_level3=0.7236346 eg3_level4=0.6299605 eg3_level5=0 amplitude_cc16=100 ampeg_attack=0 ampeg_release=0.1892049 eg4_time1=0 eg4_time2=0 eg4_time3=0.547322 eg4_time4=6.5746972 eg4_time5=0.1892049 eg4_level1=1 eg4_level2=1 eg4_level3=1 eg4_level4=1 eg4_level5=1
<region>sample=../Sample/Wave534.wav lokey=52 hikey=52 pitch_keycenter=54 tune=46 loop_mode=loop_continuous loop_start=5387 loop_end=5876 pan=0 eg2_cutoff=17328 eg2_sustain=4 eg2_time1=0 eg2_time2=0 eg2_time3=0.5872098 eg2_time4=11.5454427 eg2_time5=9.1528722 eg2_level1=0 eg2_level2=1 eg2_level3=0.7874016 eg2_level4=0 eg2_level5=1 eg3_amplitude=100 eg3_sustain=4 eg3_time1=0 eg3_time2=0 eg3_time3=0.5377263 eg3_time4=6.4594289 eg3_time5=0.1858878 eg3_level1=0 eg3_level2=1 eg3_level3=0.7236346 eg3_level4=0.6299605 eg3_level5=0 amplitude_cc16=100 ampeg_attack=0 ampeg_release=0.1858878 eg4_time1=0 eg4_time2=0 eg4_time3=0.5377263 eg4_time4=6.4594289 eg4_time5=0.1858878 eg4_level1=1 eg4_level2=1 eg4_level3=1 eg4_level4=1 eg4_level5=1
<region>sample=../Sample/Wave534.wav lokey=53 hikey=53 pitch_keycenter=54 tune=46 loop_mode=loop_continuous loop_start=5387 loop_end=5876 pan=0 eg2_cutoff=17328 eg2_sustain=4 eg2_time1=0 eg2_time2=0 eg2_time3=0.5820395 eg2_time4=11.4437873 eg2_time5=9.0722828 eg2_level1=0 eg2_level2=1 eg2_level3=0.7874016 eg2_level4=0 eg2_level5=1 eg3_amplitude=100 eg3_sustain=4 eg3_time1=0 eg3_time2=0 eg3_time3=0.5282988 eg3_time4=6.3461815 eg3_time5=0.1826287 eg3_level1=0 eg3_level2=1 eg3_level3=0.7236346 eg3_level4=0.6299605 eg3_level5=0 amplitude_cc16=100 ampeg_attack=0 ampeg_release=0.1826287 eg4_time1=0 eg4_time2=0 eg4_time3=0.5282988 eg4_time4=6.3461815 eg4_time5=0.1826287 eg4_level1=1 eg4_level2=1 eg4_level3=1 eg4_level4=1 eg4_level5=1
<region>sample=../Sample/Wave535.wav lokey=54 hikey=54 pitch_keycenter=60 tune=-47 loop_mode=loop_continuous loop_start=6029 loop_end=6356 pan=0 eg2_cutoff=17328 eg2_sustain=4 eg2_time1=0 eg2_time2=0 eg2_time3=0.5769147 eg2_time4=11.3430268 eg2_time5=8.9924031 eg2_level1=0 eg2_level2=1 eg2_level3=0.7874016 eg2_level4=0 eg2_level5=1 eg3_amplitude=100 eg3_sustain=4 eg3_time1=0 eg3_time2=0 eg3_time3=0.5190366 eg3_time4=6.2349197 eg3_time5=0.1794269 eg3_level1=0 eg3_level2=1 eg3_level3=0.7236346 eg3_level4=0.6299605 eg3_level5=0 amplitude_cc16=100 ampeg_attack=0 ampeg_release=0.1794269 eg4_time1=0 eg4_time2=0 eg4_time3=0.5190366 eg4_time4=6.2349197 eg4_time5=0.1794269 eg4_level1=1 eg4_level2=1 eg4_level3=1 eg4_level4=1 eg4_level5=1
<region>sample=../Sample/Wave535.wav lokey=55 hikey=55 pitch_keycenter=60 tune=-47 loop_mode=loop_continuous loop_start=6029 loop_end=6356 pan=0 eg2_cutoff=17328 eg2_sustain=4 eg2_time1=0 eg2_time2=0 eg2_time3=0.5718351 eg2_time4=11.2431536 eg2_time5=8.9132266 eg2_level1=0 eg2_level2=1 eg2_level3=0.7874016 eg2_level4=0 eg2_level5=1 eg3_amplitude=100 eg3_sustain=4 eg3_time1=0 eg3_time2=0 eg3_time3=0.5099368 eg3_time4=6.1256084 eg3_time5=0.1762812 eg3_level1=0 eg3_level2=1 eg3_level3=0.7236346 eg3_level4=0.6299605 eg3_level5=0 amplitude_cc16=100 ampeg_attack=0 ampeg_release=0.1762812 eg4_time1=0 eg4_time2=0 eg4_time3=0.5099368 eg4_time4=6.1256084 eg4_time5=0.1762812 eg4_level1=1 eg4_level2=1 eg4_level3=1 eg4_level4=1 eg4_level5=1
<region>sample=../Sample/Wave535.wav lokey=56 hikey=56 pitch_keycenter=60 tune=-47 loop_mode=loop_continuous loop_start=6029 loop_end=6356 pan=0 eg2_cutoff=17328 eg2_sustain=4 eg2_time1=0 eg2_time2=0 eg2_time3=0.5668002 eg2_time4=11.1441598 eg2_time5=8.8347474 eg2_level1=0 eg2_level2=1 eg2_level3=0.7874016 eg2_level4=0 eg2_level5=1 eg3_amplitude=100 eg3_sustain=4 eg3_time1=0 eg3_time2=0 eg3_time3=0.5009966 eg3_time4=6.0182136 eg3_time5=0.1731906 eg3_level1=0 eg3_level2=1 eg3_level3=0.7236346 eg3_level4=0.6299605 eg3_level5=0 amplitude_cc16=100 ampeg_attack=0 ampeg_release=0.1731906 eg4_time1=0 eg4_time2=0 eg4_time3=0.5009966 eg4_time4=6.0182136 eg4_time5=0.1731906 eg4_level1=1 eg4_level2=1 eg4_level3=1 eg4_level4=1 eg4_level5=1
<region>sample=../Sample/Wave535.wav lokey=57 hikey=57 pitch_keycenter=60 tune=-47 loop_mode=loop_continuous loop_start=6029 loop_end=6356 pan=0 eg2_cutoff=17328 eg2_sustain=4 eg2_time1=0 eg2_time2=0 eg2_time3=0.5618096 eg2_time4=11.0460375 eg2_time5=8.7569591 eg2_level1=0 eg2_level2=1 eg2_level3=0.7874016 eg2_level4=0 eg2_level5=1 eg3_amplitude=100 eg3_sustain=4 eg3_time1=0 eg3_time2=0 eg3_time3=0.492213 eg3_time4=5.9127017 eg3_time5=0.1701542 eg3_level1=0 eg3_level2=1 eg3_level3=0.7236346 eg3_level4=0.6299605 eg3_level5=0 amplitude_cc16=100 ampeg_attack=0 ampeg_release=0.1701542 eg4_time1=0 eg4_time2=0 eg4_time3=0.492213 eg4_time4=5.9127017 eg4_time5=0.1701542 eg4_level1=1 eg4_level2=1 eg4_level3=1 eg4_level4=1 eg4_level5=1
<region>sample=../Sample/Wave536.wav lokey=58 hikey=58 pitch_keycenter=62 tune=-49 loop_mode=loop_continuous loop_start=4694 loop_end=4985 pan=0 eg2_cutoff=17328 eg2_sustain=4 eg2_time1=0 eg2_time2=0 eg2_time3=0.556863 eg2_time4=10.9487792 eg2_time5=8.6798557 eg2_level1=0 eg2_level2=1 eg2_level3=0.7874016 eg2_level4=0 eg2_level5=1 eg3_amplitude=100 eg3_sustain=4 eg3_time1=0 eg3_time2=0 eg3_time3=0.4835835 eg3_time4=5.8090396 eg3_time5=0.167171 eg3_level1=0 eg3_level2=1 eg3_level3=0.7236346 eg3_level4=0.6299605 eg3_level5=0 amplitude_cc16=100 ampeg_attack=0 ampeg_release=0.167171 eg4_time1=0 eg4_time2=0 eg4_time3=0.4835835 eg4_time4=5.8090396 eg4_time5=0.167171 eg4_level1=1 eg4_level2=1 eg4_level3=1 eg4_level4=1 eg4_level5=1
<region>sample=../Sample/Wave536.wav lokey=59 hikey=59 pitch_keycenter=62 tune=-49 loop_mode=loop_continuous loop_start=4694 loop_end=4985 pan=0 eg2_cutoff=17328 eg2_sustain=4 eg2_time1=0 eg2_time2=0 eg2_time3=0.5519599 eg2_time4=10.8523773 eg2_time5=8.6034312 eg2_level1=0 eg2_level2=1 eg2_level3=0.7874016 eg2_level4=0 eg2_level5=1 eg3_amplitude=100 eg3_sustain=4 eg3_time1=0 eg3_time2=0 eg3_time3=0.4751053 eg3_time4=5.707195 eg3_time5=0.1642402 eg3_level1=0 eg3_level2=1 eg3_level3=0.7236346 eg3_level4=0.6299605 eg3_level5=0 amplitude_cc16=100 ampeg_attack=0 ampeg_release=0.1642402 eg4_time1=0 eg4_time2=0 eg4_time3=0.4751053 eg4_time4=5.707195 eg4_time5=0.1642402 eg4_level1=1 eg4_level2=1 eg4_level3=1 eg4_level4=1 eg4_level5=1
<region>sample=../Sample/Wave536.wav lokey=60 hikey=60 pitch_keycenter=62 tune=-49 loop_mode=loop_continuous loop_start=4694 loop_end=4985 pan=0 eg2_cutoff=17328 eg2_sustain=4 eg2_time1=0 eg2_time2=0 eg2_time3=0.5471 eg2_time4=10.7568241 eg2_time5=8.5276796 eg2_level1=0 eg2_level2=1 eg2_level3=0.7874016 eg2_level4=0 eg2_level5=1 eg3_amplitude=100 eg3_sustain=4 eg3_time1=0 eg3_time2=0 eg3_time3=0.4667757 eg3_time4=5.6071358 eg3_time5=0.1613607 eg3_level1=0 eg3_level2=1 eg3_level3=0.7236346 eg3_level4=0.6299605 eg3_level5=0 amplitude_cc16=100 ampeg_attack=0 ampeg_release=0.1613607 eg4_time1=0 eg4_time2=0 eg4_time3=0.4667757 eg4_time4=5.6071358 eg4_time5=0.1613607 eg4_level1=1 eg4_level2=1 eg4_level3=1 eg4_level4=1 eg4_level5=1
<region>sample=../Sample/Wave537.wav lokey=61 hikey=61 pitch_keycenter=68 tune=28 loop_mode=loop_continuous loop_start=6389 loop_end=6604 pan=0 eg2_cutoff=17328 eg2_sustain=4 eg2_time1=0 eg2_time2=0 eg2_time3=0.5422829 eg2_time4=10.6621123 eg2_time5=8.4525949 eg2_level1=0 eg2_level2=1 eg2_level3=0.7874016 eg2_level4=0 eg2_level5=1 eg3_amplitude=100 eg3_sustain=4 eg3_time1=0 eg3_time2=0 eg3_time3=0.4585921 eg3_time4=5.508831 eg3_time5=0.1585317 eg3_level1=0 eg3_level2=1 eg3_level3=0.7236346 eg3_level4=0.6299605 eg3_level5=0 amplitude_cc16=100 ampeg_attack=0 ampeg_release=0.1585317 eg4_time1=0 eg4_time2=0 eg4_time3=0.4585921 eg4_time4=5.508831 eg4_time5=0.1585317 eg4_level1=1 eg4_level2=1 eg4_level3=1 eg4_level4=1 eg4_level5=1
<region>sample=../Sample/Wave537.wav lokey=62 hikey=62 pitch_keycenter=68 tune=28 loop_mode=loop_continuous loop_start=6389 loop_end=6604 pan=0 eg2_cutoff=17328 eg2_sustain=4 eg2_time1=0 eg2_time2=0 eg2_time3=0.5375082 eg2_time4=10.5682344 eg2_time5=8.3781714 eg2_level1=0 eg2_level2=1 eg2_level3=0.7874016 eg2_level4=0 eg2_level5=1 eg3_amplitude=100 eg3_sustain=4 eg3_time1=0 eg3_time2=0 eg3_time3=0.450552 eg3_time4=5.4122496 eg3_time5=0.1557523 eg3_level1=0 eg3_level2=1 eg3_level3=0.7236346 eg3_level4=0.6299605 eg3_level5=0 amplitude_cc16=100 ampeg_attack=0 ampeg_release=0.1557523 eg4_time1=0 eg4_time2=0 eg4_time3=0.450552 eg4_time4=5.4122496 eg4_time5=0.1557523 eg4_level1=1 eg4_level2=1 eg4_level3=1 eg4_level4=1 eg4_level5=1
<region>sample=../Sample/Wave537.wav lokey=63 hikey=63 pitch_keycenter=68 tune=28 loop_mode=loop_continuous loop_start=6389 loop_end=6604 pan=0 eg2_cutoff=17328 eg2_sustain=4 eg2_time1=0 eg2_time2=0 eg2_time3=0.5327756 eg2_time4=10.4751831 eg2_time5=8.3044032 eg2_level1=0 eg2_level2=1 eg2_level3=0.7874016 eg2_level4=0 eg2_level5=1 eg3_amplitude=100 eg3_sustain=4 eg3_time1=0 eg3_time2=0 eg3_time3=0.4426529 eg3_time4=5.3173615 eg3_time5=0.1530216 eg3_level1=0 eg3_level2=1 eg3_level3=0.7236346 eg3_level4=0.6299605 eg3_level5=0 amplitude_cc16=100 ampeg_attack=0 ampeg_release=0.1530216 eg4_time1=0 eg4_time2=0 eg4_time3=0.4426529 eg4_time4=5.3173615 eg4_time5=0.1530216 eg4_level1=1 eg4_level2=1 eg4_level3=1 eg4_level4=1 eg4_level5=1
<region>sample=../Sample/Wave537.wav lokey=64 hikey=64 pitch_keycenter=68 tune=28 loop_mode=loop_continuous loop_start=6389 loop_end=6604 pan=0 eg2_cutoff=17328 eg2_sustain=4 eg2_time1=0 eg2_time2=0 eg2_time3=0.5280846 eg2_time4=10.382951 eg2_time5=8.2312845 eg2_level1=0 eg2_level2=1 eg2_level3=0.7874016 eg2_level4=0 eg2_level5=1 eg3_amplitude=100 eg3_sustain=4 eg3_time1=0 eg3_time2=0 eg3_time3=0.4348923 eg3_time4=5.224137 eg3_time5=0.1503388 eg3_level1=0 eg3_level2=1 eg3_level3=0.7236346 eg3_level4=0.6299605 eg3_level5=0 amplitude_cc16=100 ampeg_attack=0 ampeg_release=0.1503388 eg4_time1=0 eg4_time2=0 eg4_time3=0.4348923 eg4_time4=5.224137 eg4_time5=0.1503388 eg4_level1=1 eg4_level2=1 eg4_level3=1 eg4_level4=1 eg4_level5=1
<region>sample=../Sample/Wave537.wav lokey=65 hikey=65 pitch_keycenter=68 tune=28 loop_mode=loop_continuous loop_start=6389 loop_end=6604 pan=0 eg2_cutoff=17328 eg2_sustain=4 eg2_time1=0 eg2_time2=0 eg2_time3=0.5234349 eg2_time4=10.2915311 eg2_time5=8.1588096 eg2_level1=0 eg2_level2=1 eg2_level3=0.7874016 eg2_level4=0 eg2_level5=1 eg3_amplitude=100 eg3_sustain=4 eg3_time1=0 eg3_time2=0 eg3_time3=0.4272677 eg3_time4=5.1325469 eg3_time5=0.1477031 eg3_level1=0 eg3_level2=1 eg3_level3=0.7236346 eg3_level4=0.6299605 eg3_level5=0 amplitude_cc16=100 ampeg_attack=0 ampeg_release=0.1477031 eg4_time1=0 eg4_time2=0 eg4_time3=0.4272677 eg4_time4=5.1325469 eg4_time5=0.1477031 eg4_level1=1 eg4_level2=1 eg4_level3=1 eg4_level4=1 eg4_level5=1
<region>sample=../Sample/Wave538.wav lokey=66 hikey=66 pitch_keycenter=73 tune=30 loop_mode=loop_continuous loop_start=4490 loop_end=4651 pan=0 eg2_cutoff=17328 eg2_sustain=4 eg2_time1=0 eg2_time2=0 eg2_time3=0.5188261 eg2_time4=10.2009161 eg2_time5=8.0869728 eg2_level1=0 eg2_level2=1 eg2_level3=0.7874016 eg2_level4=0 eg2_level5=1 eg3_amplitude=100 eg3_sustain=4 eg3_time1=0 eg3_time2=0 eg3_time3=0.4197768 eg3_time4=5.0425625 eg3_time5=0.1451135 eg3_level1=0 eg3_level2=1 eg3_level3=0.7236346 eg3_level4=0.6299605 eg3_level5=0 amplitude_cc16=100 ampeg_attack=0 ampeg_release=0.1451135 eg4_time1=0 eg4_time2=0 eg4_time3=0.4197768 eg4_time4=5.0425625 eg4_time5=0.1451135 eg4_level1=1 eg4_level2=1 eg4_level3=1 eg4_level4=1 eg4_level5=1
<region>sample=../Sample/Wave538.wav lokey=67 hikey=67 pitch_keycenter=73 tune=30 loop_mode=loop_continuous loop_start=4490 loop_end=4651 pan=0 eg2_cutoff=17328 eg2_sustain=4 eg2_time1=0 eg2_time2=0 eg2_time3=0.514258 eg2_time4=10.1110989 eg2_time5=8.0157685 eg2_level1=0 eg2_level2=1 eg2_level3=0.7874016 eg2_level4=0 eg2_level5=1 eg3_amplitude=100 eg3_sustain=4 eg3_time1=0 eg3_time2=0 eg3_time3=0.4124172 eg3_time4=4.9541558 eg3_time5=0.1425694 eg3_level1=0 eg3_level2=1 eg3_level3=0.7236346 eg3_level4=0.6299605 eg3_level5=0 amplitude_cc16=100 ampeg_attack=0 ampeg_release=0.1425694 eg4_time1=0 eg4_time2=0 eg4_time3=0.4124172 eg4_time4=4.9541558 eg4_time5=0.1425694 eg4_level1=1 eg4_level2=1 eg4_level3=1 eg4_level4=1 eg4_level5=1
<region>sample=../Sample/Wave538.wav lokey=68 hikey=68 pitch_keycenter=73 tune=30 loop_mode=loop_continuous loop_start=4490 loop_end=4651 pan=0 eg2_cutoff=17328 eg2_sustain=4 eg2_time1=0 eg2_time2=0 eg2_time3=0.50973 eg2_time4=10.0220726 eg2_time5=7.9451912 eg2_level1=0 eg2_level2=1 eg2_level3=0.7874016 eg2_level4=0 eg2_level5=1 eg3_amplitude=100 eg3_sustain=4 eg3_time1=0 eg3_time2=0 eg3_time3=0.4051867 eg3_time4=4.8672991 eg3_time5=0.1400699 eg3_level1=0 eg3_level2=1 eg3_level3=0.7236346 eg3_level4=0.6299605 eg3_level5=0 amplitude_cc16=100 ampeg_attack=0 ampeg_release=0.1400699 eg4_time1=0 eg4_time2=0 eg4_time3=0.4051867 eg4_time4=4.8672991 eg4_time5=0.1400699 eg4_level1=1 eg4_level2=1 eg4_level3=1 eg4_level4=1 eg4_level5=1
<region>sample=../Sample/Wave538.wav lokey=69 hikey=69 pitch_keycenter=73 tune=30 loop_mode=loop_continuous loop_start=4490 loop_end=4651 pan=0 eg2_cutoff=17328 eg2_sustain=4 eg2_time1=0 eg2_time2=0 eg2_time3=0.5052419 eg2_time4=9.9338301 eg2_time5=7.8752352 eg2_level1=0 eg2_level2=1 eg2_level3=0.7874016 eg2_level4=0 eg2_level5=1 eg3_amplitude=100 eg3_sustain=4 eg3_time1=0 eg3_time2=0 eg3_time3=0.3980829 eg3_time4=4.7819651 eg3_time5=0.1376141 eg3_level1=0 eg3_level2=1 eg3_level3=0.7236346 eg3_level4=0.6299605 eg3_level5=0 amplitude_cc16=100 ampeg_attack=0 ampeg_release=0.1376141 eg4_time1=0 eg4_time2=0 eg4_time3=0.3980829 eg4_time4=4.7819651 eg4_time5=0.1376141 eg4_level1=1 eg4_level2=1 eg4_level3=1 eg4_level4=1 eg4_level5=1
<region>sample=../Sample/Wave539.wav lokey=70 hikey=70 pitch_keycenter=78 tune=39 loop_mode=loop_continuous loop_start=3719 loop_end=3840 pan=0 eg2_cutoff=17328 eg2_sustain=4 eg2_time1=0 eg2_time2=0 eg2_time3=0.5007934 eg2_time4=9.8463646 eg2_time5=7.8058953 eg2_level1=0 eg2_level2=1 eg2_level3=0.7874016 eg2_level4=0 eg2_level5=1 eg3_amplitude=100 eg3_sustain=4 eg3_time1=0 eg3_time2=0 eg3_time3=0.3911037 eg3_time4=4.6981272 eg3_time5=0.1352015 eg3_level1=0 eg3_level2=1 eg3_level3=0.7236346 eg3_level4=0.6299605 eg3_level5=0 amplitude_cc16=100 ampeg_attack=0 ampeg_release=0.1352015 eg4_time1=0 eg4_time2=0 eg4_time3=0.3911037 eg4_time4=4.6981272 eg4_time5=0.1352015 eg4_level1=1 eg4_level2=1 eg4_level3=1 eg4_level4=1 eg4_level5=1
<region>sample=../Sample/Wave539.wav lokey=71 hikey=71 pitch_keycenter=78 tune=39 loop_mode=loop_continuous loop_start=3719 loop_end=3840 pan=0 eg2_cutoff=17328 eg2_sustain=4 eg2_time1=0 eg2_time2=0 eg2_time3=0.496384 eg2_time4=9.7596692 eg2_time5=7.7371658 eg2_level1=0 eg2_level2=1 eg2_level3=0.7874016 eg2_level4=0 eg2_level5=1 eg3_amplitude=100 eg3_sustain=4 eg3_time1=0 eg3_time2=0 eg3_time3=0.3842468 eg3_time4=4.6157591 eg3_time5=0.1328311 eg3_level1=0 eg3_level2=1 eg3_level3=0.7236346 eg3_level4=0.6299605 eg3_level5=0 amplitude_cc16=100 ampeg_attack=0 ampeg_release=0.1328311 eg4_time1=0 eg4_time2=0 eg4_time3=0.3842468 eg4_time4=4.6157591 eg4_time5=0.1328311 eg4_level1=1 eg4_level2=1 eg4_level3=1 eg4_level4=1 eg4_level5=1
<region>sample=../Sample/Wave539.wav lokey=72 hikey=72 pitch_keycenter=78 tune=39 loop_mode=loop_continuous loop_start=3719 loop_end=3840 pan=0 eg2_cutoff=17328 eg2_sustain=4 eg2_time1=0 eg2_time2=0 eg2_time3=0.4920134 eg2_time4=9.6737372 eg2_time5=7.6690415 eg2_level1=0 eg2_level2=1 eg2_level3=0.7874016 eg2_level4=0 eg2_level5=1 eg3_amplitude=100 eg3_sustain=4 eg3_time1=0 eg3_time2=0 eg3_time3=0.3775102 eg3_time4=4.5348352 eg3_time5=0.1305023 eg3_level1=0 eg3_level2=1 eg3_level3=0.7236346 eg3_level4=0.6299605 eg3_level5=0 amplitude_cc16=100 ampeg_attack=0 ampeg_release=0.1305023 eg4_time1=0 eg4_time2=0 eg4_time3=0.3775102 eg4_time4=4.5348352 eg4_time5=0.1305023 eg4_level1=1 eg4_level2=1 eg4_level3=1 eg4_level4=1 eg4_level5=1
<region>sample=../Sample/Wave539.wav lokey=73 hikey=73 pitch_keycenter=78 tune=39 loop_mode=loop_continuous loop_start=3719 loop_end=3840 pan=0 eg2_cutoff=17328 eg2_sustain=4 eg2_time1=0 eg2_time2=0 eg2_time3=0.4876813 eg2_time4=9.5885617 eg2_time5=7.601517 eg2_level1=0 eg2_level2=1 eg2_level3=0.7874016 eg2_level4=0 eg2_level5=1 eg3_amplitude=100 eg3_sustain=4 eg3_time1=0 eg3_time2=0 eg3_time3=0.3708916 eg3_time4=4.45533 eg3_time5=0.1282143 eg3_level1=0 eg3_level2=1 eg3_level3=0.7236346 eg3_level4=0.6299605 eg3_level5=0 amplitude_cc16=100 ampeg_attack=0 ampeg_release=0.1282143 eg4_time1=0 eg4_time2=0 eg4_time3=0.3708916 eg4_time4=4.45533 eg4_time5=0.1282143 eg4_level1=1 eg4_level2=1 eg4_level3=1 eg4_level4=1 eg4_level5=1
<region>sample=../Sample/Wave539.wav lokey=74 hikey=74 pitch_keycenter=78 tune=39 loop_mode=loop_continuous loop_start=3719 loop_end=3840 pan=0 eg2_cutoff=17328 eg2_sustain=4 eg2_time1=0 eg2_time2=0 eg2_time3=0.4833874 eg2_time4=9.5041362 eg2_time5=7.5345871 eg2_level1=0 eg2_level2=1 eg2_level3=0.7874016 eg2_level4=0 eg2_level5=1 eg3_amplitude=100 eg3_sustain=4 eg3_time1=0 eg3_time2=0 eg3_time3=0.3643891 eg3_time4=4.3772187 eg3_time5=0.1259665 eg3_level1=0 eg3_level2=1 eg3_level3=0.7236346 eg3_level4=0.6299605 eg3_level5=0 amplitude_cc16=100 ampeg_attack=0 ampeg_release=0.1259665 eg4_time1=0 eg4_time2=0 eg4_time3=0.3643891 eg4_time4=4.3772187 eg4_time5=0.1259665 eg4_level1=1 eg4_level2=1 eg4_level3=1 eg4_level4=1 eg4_level5=1
<region>sample=../Sample/Wave539.wav lokey=75 hikey=75 pitch_keycenter=78 tune=39 loop_mode=loop_continuous loop_start=3719 loop_end=3840 pan=0 eg2_cutoff=17328 eg2_sustain=4 eg2_time1=0 eg2_time2=0 eg2_time3=0.4791313 eg2_time4=9.4204541 eg2_time5=7.4682465 eg2_level1=0 eg2_level2=1 eg2_level3=0.7874016 eg2_level4=0 eg2_level5=1 eg3_amplitude=100 eg3_sustain=4 eg3_time1=0 eg3_time2=0 eg3_time3=0.3580006 eg3_time4=4.3004769 eg3_time5=0.123758 eg3_level1=0 eg3_level2=1 eg3_level3=0.7236346 eg3_level4=0.6299605 eg3_level5=0 amplitude_cc16=100 ampeg_attack=0 ampeg_release=0.123758 eg4_time1=0 eg4_time2=0 eg4_time3=0.3580006 eg4_time4=4.3004769 eg4_time5=0.123758 eg4_level1=1 eg4_level2=1 eg4_level3=1 eg4_level4=1 eg4_level5=1
<region>sample=../Sample/Wave539.wav lokey=76 hikey=76 pitch_keycenter=78 tune=39 loop_mode=loop_continuous loop_start=3719 loop_end=3840 pan=0 eg2_cutoff=17328 eg2_sustain=4 eg2_time1=0 eg2_time2=0 eg2_time3=0.4749126 eg2_time4=9.3375088 eg2_time5=7.40249 eg2_level1=0 eg2_level2=1 eg2_level3=0.7874016 eg2_level4=0 eg2_level5=1 eg3_amplitude=100 eg3_sustain=4 eg3_time1=0 eg3_time2=0 eg3_time3=0.3517241 eg3_time4=4.2250805 eg3_time5=0.1215883 eg3_level1=0 eg3_level2=1 eg3_level3=0.7236346 eg3_level4=0.6299605 eg3_level5=0 amplitude_cc16=100 ampeg_attack=0 ampeg_release=0.1215883 eg4_time1=0 eg4_time2=0 eg4_time3=0.3517241 eg4_time4=4.2250805 eg4_time5=0.1215883 eg4_level1=1 eg4_level2=1 eg4_level3=1 eg4_level4=1 eg4_level5=1
<region>sample=../Sample/Wave539.wav lokey=77 hikey=77 pitch_keycenter=78 tune=39 loop_mode=loop_continuous loop_start=3719 loop_end=3840 pan=0 eg2_cutoff=17328 eg2_sustain=4 eg2_time1=0 eg2_time2=0 eg2_time3=0.4707311 eg2_time4=9.2552937 eg2_time5=7.3373124 eg2_level1=0 eg2_level2=1 eg2_level3=0.7874016 eg2_level4=0 eg2_level5=1 eg3_amplitude=100 eg3_sustain=4 eg3_time1=0 eg3_time2=0 eg3_time3=0.3455576 eg3_time4=4.1510059 eg3_time5=0.1194566 eg3_level1=0 eg3_level2=1 eg3_level3=0.7236346 eg3_level4=0.6299605 eg3_level5=0 amplitude_cc16=100 ampeg_attack=0 ampeg_release=0.1194566 eg4_time1=0 eg4_time2=0 eg4_time3=0.3455576 eg4_time4=4.1510059 eg4_time5=0.1194566 eg4_level1=1 eg4_level2=1 eg4_level3=1 eg4_level4=1 eg4_level5=1
<region>sample=../Sample/Wave539.wav lokey=78 hikey=78 pitch_keycenter=78 tune=39 loop_mode=loop_continuous loop_start=3719 loop_end=3840 pan=0 eg2_cutoff=17328 eg2_sustain=4 eg2_time1=0 eg2_time2=0 eg2_time3=0.4665864 eg2_time4=9.1738026 eg2_time5=7.2727088 eg2_level1=0 eg2_level2=1 eg2_level3=0.7874016 eg2_level4=0 eg2_level5=1 eg3_amplitude=100 eg3_sustain=4 eg3_time1=0 eg3_time2=0 eg3_time3=0.3394993 eg3_time4=4.0782301 eg3_time5=0.1173622 eg3_level1=0 eg3_level2=1 eg3_level3=0.7236346 eg3_level4=0.6299605 eg3_level5=0 amplitude_cc16=100 ampeg_attack=0 ampeg_release=0.1173622 eg4_time1=0 eg4_time2=0 eg4_time3=0.3394993 eg4_time4=4.0782301 eg4_time5=0.1173622 eg4_level1=1 eg4_level2=1 eg4_level3=1 eg4_level4=1 eg4_level5=1
<region>sample=../Sample/Wave539.wav lokey=79 hikey=79 pitch_keycenter=78 tune=39 loop_mode=loop_continuous loop_start=3719 loop_end=3840 pan=0 eg2_cutoff=17328 eg2_sustain=4 eg2_time1=0 eg2_time2=0 eg2_time3=0.4624782 eg2_time4=9.093029 eg2_time5=7.2086739 eg2_level1=0 eg2_level2=1 eg2_level3=0.7874016 eg2_level4=0 eg2_level5=1 eg3_amplitude=100 eg3_sustain=4 eg3_time1=0 eg3_time2=0 eg3_time3=0.3335472 eg3_time4=4.0067301 eg3_time5=0.1153046 eg3_level1=0 eg3_level2=1 eg3_level3=0.7236346 eg3_level4=0.6299605 eg3_level5=0 amplitude_cc16=100 ampeg_attack=0 ampeg_release=0.1153046 eg4_time1=0 eg4_time2=0 eg4_time3=0.3335472 eg4_time4=4.0067301 eg4_time5=0.1153046 eg4_level1=1 eg4_level2=1 eg4_level3=1 eg4_level4=1 eg4_level5=1
<region>sample=../Sample/Wave539.wav lokey=80 hikey=80 pitch_keycenter=78 tune=39 loop_mode=loop_continuous loop_start=3719 loop_end=3840 pan=0 eg2_cutoff=17328 eg2_sustain=4 eg2_time1=0 eg2_time2=0 eg2_time3=0.4584061 eg2_time4=9.0129666 eg2_time5=7.1452029 eg2_level1=0 eg2_level2=1 eg2_level3=0.7874016 eg2_level4=0 eg2_level5=1 eg3_amplitude=100 eg3_sustain=4 eg3_time1=0 eg3_time2=0 eg3_time3=0.3276994 eg3_time4=3.9364837 eg3_time5=0.1132831 eg3_level1=0 eg3_level2=1 eg3_level3=0.7236346 eg3_level4=0.6299605 eg3_level5=0 amplitude_cc16=100 ampeg_attack=0 ampeg_release=0.1132831 eg4_time1=0 eg4_time2=0 eg4_time3=0.3276994 eg4_time4=3.9364837 eg4_time5=0.1132831 eg4_level1=1 eg4_level2=1 eg4_level3=1 eg4_level4=1 eg4_level5=1
<region>sample=../Sample/Wave539.wav lokey=81 hikey=81 pitch_keycenter=78 tune=39 loop_mode=loop_continuous loop_start=3719 loop_end=3840 pan=0 eg2_cutoff=17328 eg2_sustain=4 eg2_time1=0 eg2_time2=0 eg2_time3=0.45437 eg2_time4=8.9336091 eg2_time5=7.0822907 eg2_level1=0 eg2_level2=1 eg2_level3=0.7874016 eg2_level4=0 eg2_level5=1 eg3_amplitude=100 eg3_sustain=4 eg3_time1=0 eg3_time2=0 eg3_time3=0.3219541 eg3_time4=3.8674689 eg3_time5=0.111297 eg3_level1=0 eg3_level2=1 eg3_level3=0.7236346 eg3_level4=0.6299605 eg3_level5=0 amplitude_cc16=100 ampeg_attack=0 ampeg_release=0.111297 eg4_time1=0 eg4_time2=0 eg4_time3=0.3219541 eg4_time4=3.8674689 eg4_time5=0.111297 eg4_level1=1 eg4_level2=1 eg4_level3=1 eg4_level4=1 eg4_level5=1
<region>sample=../Sample/Wave539.wav lokey=82 hikey=82 pitch_keycenter=78 tune=39 loop_mode=loop_continuous loop_start=3719 loop_end=3840 pan=0 eg2_cutoff=17328 eg2_sustain=4 eg2_time1=0 eg2_time2=0 eg2_time3=0.4503693 eg2_time4=8.8549503 eg2_time5=7.0199325 eg2_level1=0 eg2_level2=1 eg2_level3=0.7874016 eg2_level4=0 eg2_level5=1 eg3_amplitude=100 eg3_sustain=4 eg3_time1=0 eg3_time2=0 eg3_time3=0.3163096 eg3_time4=3.7996641 eg3_time5=0.1093457 eg3_level1=0 eg3_level2=1 eg3_level3=0.7236346 eg3_level4=0.6299605 eg3_level5=0 amplitude_cc16=100 ampeg_attack=0 ampeg_release=0.1093457 eg4_time1=0 eg4_time2=0 eg4_time3=0.3163096 eg4_time4=3.7996641 eg4_time5=0.1093457 eg4_level1=1 eg4_level2=1 eg4_level3=1 eg4_level4=1 eg4_level5=1
<region>sample=../Sample/Wave539.wav lokey=83 hikey=83 pitch_keycenter=78 tune=39 loop_mode=loop_continuous loop_start=3719 loop_end=3840 pan=0 eg2_cutoff=17328 eg2_sustain=4 eg2_time1=0 eg2_time2=0 eg2_time3=0.4464039 eg2_time4=8.7769842 eg2_time5=6.9581233 eg2_level1=0 eg2_level2=1 eg2_level3=0.7874016 eg2_level4=0 eg2_level5=1 eg3_amplitude=100 eg3_sustain=4 eg3_time1=0 eg3_time2=0 eg3_time3=0.310764 eg3_time4=3.733048 eg3_time5=0.1074287 eg3_level1=0 eg3_level2=1 eg3_level3=0.7236346 eg3_level4=0.6299605 eg3_level5=0 amplitude_cc16=100 ampeg_attack=0 ampeg_release=0.1074287 eg4_time1=0 eg4_time2=0 eg4_time3=0.310764 eg4_time4=3.733048 eg4_time5=0.1074287 eg4_level1=1 eg4_level2=1 eg4_level3=1 eg4_level4=1 eg4_level5=1
<region>sample=../Sample/Wave539.wav lokey=84 hikey=84 pitch_keycenter=78 tune=39 loop_mode=loop_continuous loop_start=3719 loop_end=3840 pan=0 eg2_cutoff=17328 eg2_sustain=4 eg2_time1=0 eg2_time2=0 eg2_time3=0.4424734 eg2_time4=8.6997045 eg2_time5=6.8968583 eg2_level1=0 eg2_level2=1 eg2_level3=0.7874016 eg2_level4=0 eg2_level5=1 eg3_amplitude=100 eg3_sustain=4 eg3_time1=0 eg3_time2=0 eg3_time3=0.3053157 eg3_time4=3.6675998 eg3_time5=0.1055452 eg3_level1=0 eg3_level2=1 eg3_level3=0.7236346 eg3_level4=0.6299605 eg3_level5=0 amplitude_cc16=100 ampeg_attack=0 ampeg_release=0.1055452 eg4_time1=0 eg4_time2=0 eg4_time3=0.3053157 eg4_time4=3.6675998 eg4_time5=0.1055452 eg4_level1=1 eg4_level2=1 eg4_level3=1 eg4_level4=1 eg4_level5=1
<region>sample=../Sample/Wave539.wav lokey=85 hikey=85 pitch_keycenter=78 tune=39 loop_mode=loop_continuous loop_start=3719 loop_end=3840 pan=0 eg2_cutoff=17328 eg2_sustain=4 eg2_time1=0 eg2_time2=0 eg2_time3=0.4385775 eg2_time4=8.6231052 eg2_time5=6.8361328 eg2_level1=0 eg2_level2=1 eg2_level3=0.7874016 eg2_level4=0 eg2_level5=1 eg3_amplitude=100 eg3_sustain=4 eg3_time1=0 eg3_time2=0 eg3_time3=0.2999628 eg3_time4=3.6032991 eg3_time5=0.1036948 eg3_level1=0 eg3_level2=1 eg3_level3=0.7236346 eg3_level4=0.6299605 eg3_level5=0 amplitude_cc16=100 ampeg_attack=0 ampeg_release=0.1036948 eg4_time1=0 eg4_time2=0 eg4_time3=0.2999628 eg4_time4=3.6032991 eg4_time5=0.1036948 eg4_level1=1 eg4_level2=1 eg4_level3=1 eg4_level4=1 eg4_level5=1
<region>sample=../Sample/Wave539.wav lokey=86 hikey=86 pitch_keycenter=78 tune=39 loop_mode=loop_continuous loop_start=3719 loop_end=3840 pan=0 eg2_cutoff=17328 eg2_sustain=4 eg2_time1=0 eg2_time2=0 eg2_time3=0.4347159 eg2_time4=8.5471804 eg2_time5=6.7759419 eg2_level1=0 eg2_level2=1 eg2_level3=0.7874016 eg2_level4=0 eg2_level5=1 eg3_amplitude=100 eg3_sustain=4 eg3_time1=0 eg3_time2=0 eg3_time3=0.2947039 eg3_time4=3.5401257 eg3_time5=0.1018768 eg3_level1=0 eg3_level2=1 eg3_level3=0.7236346 eg3_level4=0.6299605 eg3_level5=0 amplitude_cc16=100 ampeg_attack=0 ampeg_release=0.1018768 eg4_time1=0 eg4_time2=0 eg4_time3=0.2947039 eg4_time4=3.5401257 eg4_time5=0.1018768 eg4_level1=1 eg4_level2=1 eg4_level3=1 eg4_level4=1 eg4_level5=1
<region>sample=../Sample/Wave539.wav lokey=87 hikey=87 pitch_keycenter=78 tune=39 loop_mode=loop_continuous loop_start=3719 loop_end=3840 pan=0 eg2_cutoff=17328 eg2_sustain=4 eg2_time1=0 eg2_time2=0 eg2_time3=0.4308883 eg2_time4=8.471924 eg2_time5=6.716281 eg2_level1=0 eg2_level2=1 eg2_level3=0.7874016 eg2_level4=0 eg2_level5=1 eg3_amplitude=100 eg3_sustain=4 eg3_time1=0 eg3_time2=0 eg3_time3=0.2895371 eg3_time4=3.4780598 eg3_time5=0.1000907 eg3_level1=0 eg3_level2=1 eg3_level3=0.7236346 eg3_level4=0.6299605 eg3_level5=0 amplitude_cc16=100 ampeg_attack=0 ampeg_release=0.1000907 eg4_time1=0 eg4_time2=0 eg4_time3=0.2895371 eg4_time4=3.4780598 eg4_time5=0.1000907 eg4_level1=1 eg4_level2=1 eg4_level3=1 eg4_level4=1 eg4_level5=1
<region>sample=../Sample/Wave539.wav lokey=88 hikey=88 pitch_keycenter=78 tune=39 loop_mode=loop_continuous loop_start=3719 loop_end=3840 pan=0 eg2_cutoff=17328 eg2_sustain=4 eg2_time1=0 eg2_time2=0 eg2_time3=0.4270944 eg2_time4=8.3973303 eg2_time5=6.6571454 eg2_level1=0 eg2_level2=1 eg2_level3=0.7874016 eg2_level4=0 eg2_level5=1 eg3_amplitude=100 eg3_sustain=4 eg3_time1=0 eg3_time2=0 eg3_time3=0.2844609 eg3_time4=3.4170821 eg3_time5=0.0983359 eg3_level1=0 eg3_level2=1 eg3_level3=0.7236346 eg3_level4=0.6299605 eg3_level5=0 amplitude_cc16=100 ampeg_attack=0 ampeg_release=0.0983359 eg4_time1=0 eg4_time2=0 eg4_time3=0.2844609 eg4_time4=3.4170821 eg4_time5=0.0983359 eg4_level1=1 eg4_level2=1 eg4_level3=1 eg4_level4=1 eg4_level5=1
<region>sample=../Sample/Wave539.wav lokey=89 hikey=89 pitch_keycenter=78 tune=39 loop_mode=loop_continuous loop_start=3719 loop_end=3840 pan=0 eg2_cutoff=17328 eg2_sustain=4 eg2_time1=0 eg2_time2=0 eg2_time3=0.4233339 eg2_time4=8.3233934 eg2_time5=6.5985305 eg2_level1=0 eg2_level2=1 eg2_level3=0.7874016 eg2_level4=0 eg2_level5=1 eg3_amplitude=100 eg3_sustain=4 eg3_time1=0 eg3_time2=0 eg3_time3=0.2794737 eg3_time4=3.3571735 eg3_time5=0.0966119 eg3_level1=0 eg3_level2=1 eg3_level3=0.7236346 eg3_level4=0.6299605 eg3_level5=0 amplitude_cc16=100 ampeg_attack=0 ampeg_release=0.0966119 eg4_time1=0 eg4_time2=0 eg4_time3=0.2794737 eg4_time4=3.3571735 eg4_time5=0.0966119 eg4_level1=1 eg4_level2=1 eg4_level3=1 eg4_level4=1 eg4_level5=1
<region>sample=../Sample/Wave539.wav lokey=90 hikey=90 pitch_keycenter=78 tune=39 loop_mode=loop_continuous loop_start=3719 loop_end=3840 pan=0 eg2_cutoff=17328 eg2_sustain=4 eg2_time1=0 eg2_time2=0 eg2_time3=0.4196066 eg2_time4=8.2501075 eg2_time5=6.5404317 eg2_level1=0 eg2_level2=1 eg2_level3=0.7874016 eg2_level4=0 eg2_level5=1 eg3_amplitude=100 eg3_sustain=4 eg3_time1=0 eg3_time2=0 eg3_time3=0.2745739 eg3_time4=3.2983152 eg3_time5=0.0949181 eg3_level1=0 eg3_level2=1 eg3_level3=0.7236346 eg3_level4=0.6299605 eg3_level5=0 amplitude_cc16=100 ampeg_attack=0 ampeg_release=0.0949181 eg4_time1=0 eg4_time2=0 eg4_time3=0.2745739 eg4_time4=3.2983152 eg4_time5=0.0949181 eg4_level1=1 eg4_level2=1 eg4_level3=1 eg4_level4=1 eg4_level5=1
<region>sample=../Sample/Wave539.wav lokey=91 hikey=91 pitch_keycenter=78 tune=39 loop_mode=loop_continuous loop_start=3719 loop_end=3840 pan=0 eg2_cutoff=17328 eg2_sustain=4 eg2_time1=0 eg2_time2=0 eg2_time3=0.415912 eg2_time4=8.1774668 eg2_time5=6.4828444 eg2_level1=0 eg2_level2=1 eg2_level3=0.7874016 eg2_level4=0 eg2_level5=1 eg3_amplitude=100 eg3_sustain=4 eg3_time1=0 eg3_time2=0 eg3_time3=0.2697601 eg3_time4=3.2404888 eg3_time5=0.0932539 eg3_level1=0 eg3_level2=1 eg3_level3=0.7236346 eg3_level4=0.6299605 eg3_level5=0 amplitude_cc16=100 ampeg_attack=0 ampeg_release=0.0932539 eg4_time1=0 eg4_time2=0 eg4_time3=0.2697601 eg4_time4=3.2404888 eg4_time5=0.0932539 eg4_level1=1 eg4_level2=1 eg4_level3=1 eg4_level4=1 eg4_level5=1
<region>sample=../Sample/Wave539.wav lokey=92 hikey=92 pitch_keycenter=78 tune=39 loop_mode=loop_continuous loop_start=3719 loop_end=3840 pan=0 eg2_cutoff=17328 eg2_sustain=4 eg2_time1=0 eg2_time2=0 eg2_time3=0.41225 eg2_time4=8.1054658 eg2_time5=6.4257642 eg2_level1=0 eg2_level2=1 eg2_level3=0.7874016 eg2_level4=0 eg2_level5=1 eg3_amplitude=100 eg3_sustain=4 eg3_time1=0 eg3_time2=0 eg3_time3=0.2650306 eg3_time4=3.1836762 eg3_time5=0.091619 eg3_level1=0 eg3_level2=1 eg3_level3=0.7236346 eg3_level4=0.6299605 eg3_level5=0 amplitude_cc16=100 ampeg_attack=0 ampeg_release=0.091619 eg4_time1=0 eg4_time2=0 eg4_time3=0.2650306 eg4_time4=3.1836762 eg4_time5=0.091619 eg4_level1=1 eg4_level2=1 eg4_level3=1 eg4_level4=1 eg4_level5=1
<region>sample=../Sample/Wave539.wav lokey=93 hikey=93 pitch_keycenter=78 tune=39 loop_mode=loop_continuous loop_start=3719 loop_end=3840 pan=0 eg2_cutoff=17328 eg2_sustain=4 eg2_time1=0 eg2_time2=0 eg2_time3=0.4086202 eg2_time4=8.0340987 eg2_time5=6.3691865 eg2_level1=0 eg2_level2=1 eg2_level3=0.7874016 eg2_level4=0 eg2_level5=1 eg3_amplitude=100 eg3_sustain=4 eg3_time1=0 eg3_time2=0 eg3_time3=0.2603841 eg3_time4=3.1278597 eg3_time5=0.0900127 eg3_level1=0 eg3_level2=1 eg3_level3=0.7236346 eg3_level4=0.6299605 eg3_level5=0 amplitude_cc16=100 ampeg_attack=0 ampeg_release=0.0900127 eg4_time1=0 eg4_time2=0 eg4_time3=0.2603841 eg4_time4=3.1278597 eg4_time5=0.0900127 eg4_level1=1 eg4_level2=1 eg4_level3=1 eg4_level4=1 eg4_level5=1
<region>sample=../Sample/Wave539.wav lokey=94 hikey=94 pitch_keycenter=78 tune=39 loop_mode=loop_continuous loop_start=3719 loop_end=3840 pan=0 eg2_cutoff=17328 eg2_sustain=4 eg2_time1=0 eg2_time2=0 eg2_time3=0.4050224 eg2_time4=7.9633599 eg2_time5=6.313107 eg2_level1=0 eg2_level2=1 eg2_level3=0.7874016 eg2_level4=0 eg2_level5=1 eg3_amplitude=100 eg3_sustain=4 eg3_time1=0 eg3_time2=0 eg3_time3=0.255819 eg3_time4=3.0730217 eg3_time5=0.0884346 eg3_level1=0 eg3_level2=1 eg3_level3=0.7236346 eg3_level4=0.6299605 eg3_level5=0 amplitude_cc16=100 ampeg_attack=0 ampeg_release=0.0884346 eg4_time1=0 eg4_time2=0 eg4_time3=0.255819 eg4_time4=3.0730217 eg4_time5=0.0884346 eg4_level1=1 eg4_level2=1 eg4_level3=1 eg4_level4=1 eg4_level5=1
<region>sample=../Sample/Wave539.wav lokey=95 hikey=95 pitch_keycenter=78 tune=39 loop_mode=loop_continuous loop_start=3719 loop_end=3840 pan=0 eg2_cutoff=17328 eg2_sustain=4 eg2_time1=0 eg2_time2=0 eg2_time3=0.4014562 eg2_time4=7.893244 eg2_time5=6.2575213 eg2_level1=0 eg2_level2=1 eg2_level3=0.7874016 eg2_level4=0 eg2_level5=1 eg3_amplitude=100 eg3_sustain=4 eg3_time1=0 eg3_time2=0 eg3_time3=0.2513339 eg3_time4=3.0191452 eg3_time5=0.0868842 eg3_level1=0 eg3_level2=1 eg3_level3=0.7236346 eg3_level4=0.6299605 eg3_level5=0 amplitude_cc16=100 ampeg_attack=0 ampeg_release=0.0868842 eg4_time1=0 eg4_time2=0 eg4_time3=0.2513339 eg4_time4=3.0191452 eg4_time5=0.0868842 eg4_level1=1 eg4_level2=1 eg4_level3=1 eg4_level4=1 eg4_level5=1
<region>sample=../Sample/Wave1558.wav lokey=96 hikey=96 pitch_keycenter=96 tune=-6 loop_mode=loop_continuous loop_start=1005 loop_end=1046 pan=0 eg2_cutoff=17328 eg2_sustain=4 eg2_time1=0 eg2_time2=0 eg2_time3=0.3979215 eg2_time4=7.8237455 eg2_time5=6.202425 eg2_level1=0 eg2_level2=1 eg2_level3=0.7874016 eg2_level4=0 eg2_level5=1 eg3_amplitude=100 eg3_sustain=4 eg3_time1=0 eg3_time2=0 eg3_time3=0.2469275 eg3_time4=2.9662133 eg3_time5=0.0853609 eg3_level1=0 eg3_level2=1 eg3_level3=0.7236346 eg3_level4=0.6299605 eg3_level5=0 amplitude_cc16=100 ampeg_attack=0 ampeg_release=0.0853609 eg4_time1=0 eg4_time2=0 eg4_time3=0.2469275 eg4_time4=2.9662133 eg4_time5=0.0853609 eg4_level1=1 eg4_level2=1 eg4_level3=1 eg4_level4=1 eg4_level5=1
<region>sample=../Sample/Wave1558.wav lokey=97 hikey=97 pitch_keycenter=96 tune=-6 loop_mode=loop_continuous loop_start=1005 loop_end=1046 pan=0 eg2_cutoff=17328 eg2_sustain=4 eg2_time1=0 eg2_time2=0 eg2_time3=0.3944179 eg2_time4=7.7548589 eg2_time5=6.1478138 eg2_level1=0 eg2_level2=1 eg2_level3=0.7874016 eg2_level4=0 eg2_level5=1 eg3_amplitude=100 eg3_sustain=4 eg3_time1=0 eg3_time2=0 eg3_time3=0.2425984 eg3_time4=2.9142093 eg3_time5=0.0838644 eg3_level1=0 eg3_level2=1 eg3_level3=0.7236346 eg3_level4=0.6299605 eg3_level5=0 amplitude_cc16=100 ampeg_attack=0 ampeg_release=0.0838644 eg4_time1=0 eg4_time2=0 eg4_time3=0.2425984 eg4_time4=2.9142093 eg4_time5=0.0838644 eg4_level1=1 eg4_level2=1 eg4_level3=1 eg4_level4=1 eg4_level5=1
<region>sample=../Sample/Wave1558.wav lokey=98 hikey=98 pitch_keycenter=96 tune=-6 loop_mode=loop_continuous loop_start=1005 loop_end=1046 pan=0 eg2_cutoff=17328 eg2_sustain=4 eg2_time1=0 eg2_time2=0 eg2_time3=0.3909451 eg2_time4=7.6865788 eg2_time5=6.0936834 eg2_level1=0 eg2_level2=1 eg2_level3=0.7874016 eg2_level4=0 eg2_level5=1 eg3_amplitude=100 eg3_sustain=4 eg3_time1=0 eg3_time2=0 eg3_time3=0.2383451 eg3_time4=2.8631171 eg3_time5=0.082394 eg3_level1=0 eg3_level2=1 eg3_level3=0.7236346 eg3_level4=0.6299605 eg3_level5=0 amplitude_cc16=100 ampeg_attack=0 ampeg_release=0.082394 eg4_time1=0 eg4_time2=0 eg4_time3=0.2383451 eg4_time4=2.8631171 eg4_time5=0.082394 eg4_level1=1 eg4_level2=1 eg4_level3=1 eg4_level4=1 eg4_level5=1
<region>sample=../Sample/Wave1558.wav lokey=99 hikey=99 pitch_keycenter=96 tune=-6 loop_mode=loop_continuous loop_start=1005 loop_end=1046 pan=0 eg2_cutoff=17328 eg2_sustain=4 eg2_time1=0 eg2_time2=0 eg2_time3=0.3875029 eg2_time4=7.6188999 eg2_time5=6.0400297 eg2_level1=0 eg2_level2=1 eg2_level3=0.7874016 eg2_level4=0 eg2_level5=1 eg3_amplitude=100 eg3_sustain=4 eg3_time1=0 eg3_time2=0 eg3_time3=0.2341664 eg3_time4=2.8129206 eg3_time5=0.0809495 eg3_level1=0 eg3_level2=1 eg3_level3=0.7236346 eg3_level4=0.6299605 eg3_level5=0 amplitude_cc16=100 ampeg_attack=0 ampeg_release=0.0809495 eg4_time1=0 eg4_time2=0 eg4_time3=0.2341664 eg4_time4=2.8129206 eg4_time5=0.0809495 eg4_level1=1 eg4_level2=1 eg4_level3=1 eg4_level4=1 eg4_level5=1
<region>sample=../Sample/Wave1558.wav lokey=100 hikey=100 pitch_keycenter=96 tune=-6 loop_mode=loop_continuous loop_start=1005 loop_end=1046 pan=0 eg2_cutoff=17328 eg2_sustain=4 eg2_time1=0 eg2_time2=0 eg2_time3=0.384091 eg2_time4=7.5518169 eg2_time5=5.9868484 eg2_level1=0 eg2_level2=1 eg2_level3=0.7874016 eg2_level4=0 eg2_level5=1 eg3_amplitude=100 eg3_sustain=4 eg3_time1=0 eg3_time2=0 eg3_time3=0.230061 eg3_time4=2.7636042 eg3_time5=0.0795303 eg3_level1=0 eg3_level2=1 eg3_level3=0.7236346 eg3_level4=0.6299605 eg3_level5=0 amplitude_cc16=100 ampeg_attack=0 ampeg_release=0.0795303 eg4_time1=0 eg4_time2=0 eg4_time3=0.230061 eg4_time4=2.7636042 eg4_time5=0.0795303 eg4_level1=1 eg4_level2=1 eg4_level3=1 eg4_level4=1 eg4_level5=1
<region>sample=../Sample/Wave1558.wav lokey=101 hikey=101 pitch_keycenter=96 tune=-6 loop_mode=loop_continuous loop_start=1005 loop_end=1046 pan=0 eg2_cutoff=17328 eg2_sustain=4 eg2_time1=0 eg2_time2=0 eg2_time3=0.3807091 eg2_time4=7.4853246 eg2_time5=5.9341353 eg2_level1=0 eg2_level2=1 eg2_level3=0.7874016 eg2_level4=0 eg2_level5=1 eg3_amplitude=100 eg3_sustain=4 eg3_time1=0 eg3_time2=0 eg3_time3=0.2260275 eg3_time4=2.7151524 eg3_time5=0.0781359 eg3_level1=0 eg3_level2=1 eg3_level3=0.7236346 eg3_level4=0.6299605 eg3_level5=0 amplitude_cc16=100 ampeg_attack=0 ampeg_release=0.0781359 eg4_time1=0 eg4_time2=0 eg4_time3=0.2260275 eg4_time4=2.7151524 eg4_time5=0.0781359 eg4_level1=1 eg4_level2=1 eg4_level3=1 eg4_level4=1 eg4_level5=1
<region>sample=../Sample/Wave1558.wav lokey=102 hikey=102 pitch_keycenter=96 tune=-6 loop_mode=loop_continuous loop_start=1005 loop_end=1046 pan=0 eg2_cutoff=17328 eg2_sustain=4 eg2_time1=0 eg2_time2=0 eg2_time3=0.3773571 eg2_time4=7.4194177 eg2_time5=5.8818863 eg2_level1=0 eg2_level2=1 eg2_level3=0.7874016 eg2_level4=0 eg2_level5=1 eg3_amplitude=100 eg3_sustain=4 eg3_time1=0 eg3_time2=0 eg3_time3=0.2220648 eg3_time4=2.6675501 eg3_time5=0.0767661 eg3_level1=0 eg3_level2=1 eg3_level3=0.7236346 eg3_level4=0.6299605 eg3_level5=0 amplitude_cc16=100 ampeg_attack=0 ampeg_release=0.0767661 eg4_time1=0 eg4_time2=0 eg4_time3=0.2220648 eg4_time4=2.6675501 eg4_time5=0.0767661 eg4_level1=1 eg4_level2=1 eg4_level3=1 eg4_level4=1 eg4_level5=1
<region>sample=../Sample/Wave1558.wav lokey=103 hikey=103 pitch_keycenter=96 tune=-6 loop_mode=loop_continuous loop_start=1005 loop_end=1046 pan=0 eg2_cutoff=17328 eg2_sustain=4 eg2_time1=0 eg2_time2=0 eg2_time3=0.3740345 eg2_time4=7.3540911 eg2_time5=5.8300974 eg2_level1=0 eg2_level2=1 eg2_level3=0.7874016 eg2_level4=0 eg2_level5=1 eg3_amplitude=100 eg3_sustain=4 eg3_time1=0 eg3_time2=0 eg3_time3=0.2181715 eg3_time4=2.6207824 eg3_time5=0.0754202 eg3_level1=0 eg3_level2=1 eg3_level3=0.7236346 eg3_level4=0.6299605 eg3_level5=0 amplitude_cc16=100 ampeg_attack=0 ampeg_release=0.0754202 eg4_time1=0 eg4_time2=0 eg4_time3=0.2181715 eg4_time4=2.6207824 eg4_time5=0.0754202 eg4_level1=1 eg4_level2=1 eg4_level3=1 eg4_level4=1 eg4_level5=1
<region>sample=../Sample/Wave1558.wav lokey=104 hikey=104 pitch_keycenter=96 tune=-6 loop_mode=loop_continuous loop_start=1005 loop_end=1046 pan=0 eg2_cutoff=17328 eg2_sustain=4 eg2_time1=0 eg2_time2=0 eg2_time3=0.3707412 eg2_time4=7.2893397 eg2_time5=5.7787645 eg2_level1=0 eg2_level2=1 eg2_level3=0.7874016 eg2_level4=0 eg2_level5=1 eg3_amplitude=100 eg3_sustain=4 eg3_time1=0 eg3_time2=0 eg3_time3=0.2143465 eg3_time4=2.5748345 eg3_time5=0.0740979 eg3_level1=0 eg3_level2=1 eg3_level3=0.7236346 eg3_level4=0.6299605 eg3_level5=0 amplitude_cc16=100 ampeg_attack=0 ampeg_release=0.0740979 eg4_time1=0 eg4_time2=0 eg4_time3=0.2143465 eg4_time4=2.5748345 eg4_time5=0.0740979 eg4_level1=1 eg4_level2=1 eg4_level3=1 eg4_level4=1 eg4_level5=1
<region>sample=../Sample/Wave1558.wav lokey=105 hikey=105 pitch_keycenter=96 tune=-6 loop_mode=loop_continuous loop_start=1005 loop_end=1046 pan=0 eg2_cutoff=17328 eg2_sustain=4 eg2_time1=0 eg2_time2=0 eg2_time3=0.3674769 eg2_time4=7.2251585 eg2_time5=5.7278836 eg2_level1=0 eg2_level2=1 eg2_level3=0.7874016 eg2_level4=0 eg2_level5=1 eg3_amplitude=100 eg3_sustain=4 eg3_time1=0 eg3_time2=0 eg3_time3=0.2105886 eg3_time4=2.5296923 eg3_time5=0.0727988 eg3_level1=0 eg3_level2=1 eg3_level3=0.7236346 eg3_level4=0.6299605 eg3_level5=0 amplitude_cc16=100 ampeg_attack=0 ampeg_release=0.0727988 eg4_time1=0 eg4_time2=0 eg4_time3=0.2105886 eg4_time4=2.5296923 eg4_time5=0.0727988 eg4_level1=1 eg4_level2=1 eg4_level3=1 eg4_level4=1 eg4_level5=1
<region>sample=../Sample/Wave1558.wav lokey=106 hikey=106 pitch_keycenter=96 tune=-6 loop_mode=loop_continuous loop_start=1005 loop_end=1046 pan=0 eg2_cutoff=17328 eg2_sustain=4 eg2_time1=0 eg2_time2=0 eg2_time3=0.3642413 eg2_time4=7.1615423 eg2_time5=5.6774506 eg2_level1=0 eg2_level2=1 eg2_level3=0.7874016 eg2_level4=0 eg2_level5=1 eg3_amplitude=100 eg3_sustain=4 eg3_time1=0 eg3_time2=0 eg3_time3=0.2068965 eg3_time4=2.4853415 eg3_time5=0.0715225 eg3_level1=0 eg3_level2=1 eg3_level3=0.7236346 eg3_level4=0.6299605 eg3_level5=0 amplitude_cc16=100 ampeg_attack=0 ampeg_release=0.0715225 eg4_time1=0 eg4_time2=0 eg4_time3=0.2068965 eg4_time4=2.4853415 eg4_time5=0.0715225 eg4_level1=1 eg4_level2=1 eg4_level3=1 eg4_level4=1 eg4_level5=1
<region>sample=../Sample/Wave1558.wav lokey=107 hikey=107 pitch_keycenter=96 tune=-6 loop_mode=loop_continuous loop_start=1005 loop_end=1046 pan=0 eg2_cutoff=17328 eg2_sustain=4 eg2_time1=0 eg2_time2=0 eg2_time3=0.3610343 eg2_time4=7.0984863 eg2_time5=5.6274617 eg2_level1=0 eg2_level2=1 eg2_level3=0.7874016 eg2_level4=0 eg2_level5=1 eg3_amplitude=100 eg3_sustain=4 eg3_time1=0 eg3_time2=0 eg3_time3=0.2032692 eg3_time4=2.4417682 eg3_time5=0.0702686 eg3_level1=0 eg3_level2=1 eg3_level3=0.7236346 eg3_level4=0.6299605 eg3_level5=0 amplitude_cc16=100 ampeg_attack=0 ampeg_release=0.0702686 eg4_time1=0 eg4_time2=0 eg4_time3=0.2032692 eg4_time4=2.4417682 eg4_time5=0.0702686 eg4_level1=1 eg4_level2=1 eg4_level3=1 eg4_level4=1 eg4_level5=1
<region>sample=../Sample/Wave1558.wav lokey=108 hikey=108 pitch_keycenter=96 tune=-6 loop_mode=loop_continuous loop_start=1005 loop_end=1046 pan=0 eg2_cutoff=17328 eg2_sustain=4 eg2_time1=0 eg2_time2=0 eg2_time3=0.3578554 eg2_time4=7.0359854 eg2_time5=5.577913 eg2_level1=0 eg2_level2=1 eg2_level3=0.7874016 eg2_level4=0 eg2_level5=1 eg3_amplitude=100 eg3_sustain=4 eg3_time1=0 eg3_time2=0 eg3_time3=0.1997055 eg3_time4=2.3989589 eg3_time5=0.0690366 eg3_level1=0 eg3_level2=1 eg3_level3=0.7236346 eg3_level4=0.6299605 eg3_level5=0 amplitude_cc16=100 ampeg_attack=0 ampeg_release=0.0690366 eg4_time1=0 eg4_time2=0 eg4_time3=0.1997055 eg4_time4=2.3989589 eg4_time5=0.0690366 eg4_level1=1 eg4_level2=1 eg4_level3=1 eg4_level4=1 eg4_level5=1
<region>sample=../Sample/Wave1558.wav lokey=109 hikey=109 pitch_keycenter=96 tune=-6 loop_mode=loop_continuous loop_start=1005 loop_end=1046 pan=0 eg2_cutoff=17328 eg2_sustain=4 eg2_time1=0 eg2_time2=0 eg2_time3=0.3547046 eg2_time4=6.9740349 eg2_time5=5.5288005 eg2_level1=0 eg2_level2=1 eg2_level3=0.7874016 eg2_level4=0 eg2_level5=1 eg3_amplitude=100 eg3_sustain=4 eg3_time1=0 eg3_time2=0 eg3_time3=0.1962042 eg3_time4=2.3569001 eg3_time5=0.0678263 eg3_level1=0 eg3_level2=1 eg3_level3=0.7236346 eg3_level4=0.6299605 eg3_level5=0 amplitude_cc16=100 ampeg_attack=0 ampeg_release=0.0678263 eg4_time1=0 eg4_time2=0 eg4_time3=0.1962042 eg4_time4=2.3569001 eg4_time5=0.0678263 eg4_level1=1 eg4_level2=1 eg4_level3=1 eg4_level4=1 eg4_level5=1
<region>sample=../Sample/Wave1558.wav lokey=110 hikey=110 pitch_keycenter=96 tune=-6 loop_mode=loop_continuous loop_start=1005 loop_end=1046 pan=0 eg2_cutoff=17328 eg2_sustain=4 eg2_time1=0 eg2_time2=0 eg2_time3=0.3515815 eg2_time4=6.9126298 eg2_time5=5.4801205 eg2_level1=0 eg2_level2=1 eg2_level3=0.7874016 eg2_level4=0 eg2_level5=1 eg3_amplitude=100 eg3_sustain=4 eg3_time1=0 eg3_time2=0 eg3_time3=0.1927643 eg3_time4=2.3155787 eg3_time5=0.0666371 eg3_level1=0 eg3_level2=1 eg3_level3=0.7236346 eg3_level4=0.6299605 eg3_level5=0 amplitude_cc16=100 ampeg_attack=0 ampeg_release=0.0666371 eg4_time1=0 eg4_time2=0 eg4_time3=0.1927643 eg4_time4=2.3155787 eg4_time5=0.0666371 eg4_level1=1 eg4_level2=1 eg4_level3=1 eg4_level4=1 eg4_level5=1
<region>sample=../Sample/Wave1558.wav lokey=111 hikey=111 pitch_keycenter=96 tune=-6 loop_mode=loop_continuous loop_start=1005 loop_end=1046 pan=0 eg2_cutoff=17328 eg2_sustain=4 eg2_time1=0 eg2_time2=0 eg2_time3=0.3484859 eg2_time4=6.8517654 eg2_time5=5.431869 eg2_level1=0 eg2_level2=1 eg2_level3=0.7874016 eg2_level4=0 eg2_level5=1 eg3_amplitude=100 eg3_sustain=4 eg3_time1=0 eg3_time2=0 eg3_time3=0.1893848 eg3_time4=2.2749817 eg3_time5=0.0654688 eg3_level1=0 eg3_level2=1 eg3_level3=0.7236346 eg3_level4=0.6299605 eg3_level5=0 amplitude_cc16=100 ampeg_attack=0 ampeg_release=0.0654688 eg4_time1=0 eg4_time2=0 eg4_time3=0.1893848 eg4_time4=2.2749817 eg4_time5=0.0654688 eg4_level1=1 eg4_level2=1 eg4_level3=1 eg4_level4=1 eg4_level5=1
<region>sample=../Sample/Wave1558.wav lokey=112 hikey=112 pitch_keycenter=96 tune=-6 loop_mode=loop_continuous loop_start=1005 loop_end=1046 pan=0 eg2_cutoff=17328 eg2_sustain=4 eg2_time1=0 eg2_time2=0 eg2_time3=0.3454175 eg2_time4=6.7914369 eg2_time5=5.3840424 eg2_level1=0 eg2_level2=1 eg2_level3=0.7874016 eg2_level4=0 eg2_level5=1 eg3_amplitude=100 eg3_sustain=4 eg3_time1=0 eg3_time2=0 eg3_time3=0.1860645 eg3_time4=2.2350965 eg3_time5=0.064321 eg3_level1=0 eg3_level2=1 eg3_level3=0.7236346 eg3_level4=0.6299605 eg3_level5=0 amplitude_cc16=100 ampeg_attack=0 ampeg_release=0.064321 eg4_time1=0 eg4_time2=0 eg4_time3=0.1860645 eg4_time4=2.2350965 eg4_time5=0.064321 eg4_level1=1 eg4_level2=1 eg4_level3=1 eg4_level4=1 eg4_level5=1
<region>sample=../Sample/Wave1558.wav lokey=113 hikey=113 pitch_keycenter=96 tune=-6 loop_mode=loop_continuous loop_start=1005 loop_end=1046 pan=0 eg2_cutoff=17328 eg2_sustain=4 eg2_time1=0 eg2_time2=0 eg2_time3=0.3423762 eg2_time4=6.7316396 eg2_time5=5.336637 eg2_level1=0 eg2_level2=1 eg2_level3=0.7874016 eg2_level4=0 eg2_level5=1 eg3_amplitude=100 eg3_sustain=4 eg3_time1=0 eg3_time2=0 eg3_time3=0.1828024 eg3_time4=2.1959106 eg3_time5=0.0631933 eg3_level1=0 eg3_level2=1 eg3_level3=0.7236346 eg3_level4=0.6299605 eg3_level5=0 amplitude_cc16=100 ampeg_attack=0 ampeg_release=0.0631933 eg4_time1=0 eg4_time2=0 eg4_time3=0.1828024 eg4_time4=2.1959106 eg4_time5=0.0631933 eg4_level1=1 eg4_level2=1 eg4_level3=1 eg4_level4=1 eg4_level5=1
<region>sample=../Sample/Wave1558.wav lokey=114 hikey=114 pitch_keycenter=96 tune=-6 loop_mode=loop_continuous loop_start=1005 loop_end=1046 pan=0 eg2_cutoff=17328 eg2_sustain=4 eg2_time1=0 eg2_time2=0 eg2_time3=0.3393616 eg2_time4=6.6723687 eg2_time5=5.2896489 eg2_level1=0 eg2_level2=1 eg2_level3=0.7874016 eg2_level4=0 eg2_level5=1 eg3_amplitude=100 eg3_sustain=4 eg3_time1=0 eg3_time2=0 eg3_time3=0.1795975 eg3_time4=2.1574116 eg3_time5=0.0620854 eg3_level1=0 eg3_level2=1 eg3_level3=0.7236346 eg3_level4=0.6299605 eg3_level5=0 amplitude_cc16=100 ampeg_attack=0 ampeg_release=0.0620854 eg4_time1=0 eg4_time2=0 eg4_time3=0.1795975 eg4_time4=2.1574116 eg4_time5=0.0620854 eg4_level1=1 eg4_level2=1 eg4_level3=1 eg4_level4=1 eg4_level5=1
<region>sample=../Sample/Wave1558.wav lokey=115 hikey=115 pitch_keycenter=96 tune=-6 loop_mode=loop_continuous loop_start=1005 loop_end=1046 pan=0 eg2_cutoff=17328 eg2_sustain=4 eg2_time1=0 eg2_time2=0 eg2_time3=0.3363736 eg2_time4=6.6136198 eg2_time5=5.2430745 eg2_level1=0 eg2_level2=1 eg2_level3=0.7874016 eg2_level4=0 eg2_level5=1 eg3_amplitude=100 eg3_sustain=4 eg3_time1=0 eg3_time2=0 eg3_time3=0.1764487 eg3_time4=2.1195877 eg3_time5=0.0609969 eg3_level1=0 eg3_level2=1 eg3_level3=0.7236346 eg3_level4=0.6299605 eg3_level5=0 amplitude_cc16=100 ampeg_attack=0 ampeg_release=0.0609969 eg4_time1=0 eg4_time2=0 eg4_time3=0.1764487 eg4_time4=2.1195877 eg4_time5=0.0609969 eg4_level1=1 eg4_level2=1 eg4_level3=1 eg4_level4=1 eg4_level5=1
<region>sample=../Sample/Wave1558.wav lokey=116 hikey=116 pitch_keycenter=96 tune=-6 loop_mode=loop_continuous loop_start=1005 loop_end=1046 pan=0 eg2_cutoff=17328 eg2_sustain=4 eg2_time1=0 eg2_time2=0 eg2_time3=0.3334119 eg2_time4=6.5553881 eg2_time5=5.1969102 eg2_level1=0 eg2_level2=1 eg2_level3=0.7874016 eg2_level4=0 eg2_level5=1 eg3_amplitude=100 eg3_sustain=4 eg3_time1=0 eg3_time2=0 eg3_time3=0.1733552 eg3_time4=2.0824269 eg3_time5=0.0599275 eg3_level1=0 eg3_level2=1 eg3_level3=0.7236346 eg3_level4=0.6299605 eg3_level5=0 amplitude_cc16=100 ampeg_attack=0 ampeg_release=0.0599275 eg4_time1=0 eg4_time2=0 eg4_time3=0.1733552 eg4_time4=2.0824269 eg4_time5=0.0599275 eg4_level1=1 eg4_level2=1 eg4_level3=1 eg4_level4=1 eg4_level5=1
<region>sample=../Sample/Wave1558.wav lokey=117 hikey=117 pitch_keycenter=96 tune=-6 loop_mode=loop_continuous loop_start=1005 loop_end=1046 pan=0 eg2_cutoff=17328 eg2_sustain=4 eg2_time1=0 eg2_time2=0 eg2_time3=0.3304763 eg2_time4=6.4976691 eg2_time5=5.1511524 eg2_level1=0 eg2_level2=1 eg2_level3=0.7874016 eg2_level4=0 eg2_level5=1 eg3_amplitude=100 eg3_sustain=4 eg3_time1=0 eg3_time2=0 eg3_time3=0.1703159 eg3_time4=2.0459175 eg3_time5=0.0588769 eg3_level1=0 eg3_level2=1 eg3_level3=0.7236346 eg3_level4=0.6299605 eg3_level5=0 amplitude_cc16=100 ampeg_attack=0 ampeg_release=0.0588769 eg4_time1=0 eg4_time2=0 eg4_time3=0.1703159 eg4_time4=2.0459175 eg4_time5=0.0588769 eg4_level1=1 eg4_level2=1 eg4_level3=1 eg4_level4=1 eg4_level5=1
<region>sample=../Sample/Wave1558.wav lokey=118 hikey=118 pitch_keycenter=96 tune=-6 loop_mode=loop_continuous loop_start=1005 loop_end=1046 pan=0 eg2_cutoff=17328 eg2_sustain=4 eg2_time1=0 eg2_time2=0 eg2_time3=0.3275665 eg2_time4=6.4404584 eg2_time5=5.1057975 eg2_level1=0 eg2_level2=1 eg2_level3=0.7874016 eg2_level4=0 eg2_level5=1 eg3_amplitude=100 eg3_sustain=4 eg3_time1=0 eg3_time2=0 eg3_time3=0.1673299 eg3_time4=2.0100483 eg3_time5=0.0578446 eg3_level1=0 eg3_level2=1 eg3_level3=0.7236346 eg3_level4=0.6299605 eg3_level5=0 amplitude_cc16=100 ampeg_attack=0 ampeg_release=0.0578446 eg4_time1=0 eg4_time2=0 eg4_time3=0.1673299 eg4_time4=2.0100483 eg4_time5=0.0578446 eg4_level1=1 eg4_level2=1 eg4_level3=1 eg4_level4=1 eg4_level5=1
<region>sample=../Sample/Wave1558.wav lokey=119 hikey=119 pitch_keycenter=96 tune=-6 loop_mode=loop_continuous loop_start=1005 loop_end=1046 pan=0 eg2_cutoff=17328 eg2_sustain=4 eg2_time1=0 eg2_time2=0 eg2_time3=0.3246823 eg2_time4=6.3837513 eg2_time5=5.0608419 eg2_level1=0 eg2_level2=1 eg2_level3=0.7874016 eg2_level4=0 eg2_level5=1 eg3_amplitude=100 eg3_sustain=4 eg3_time1=0 eg3_time2=0 eg3_time3=0.1643963 eg3_time4=1.9748079 eg3_time5=0.0568305 eg3_level1=0 eg3_level2=1 eg3_level3=0.7236346 eg3_level4=0.6299605 eg3_level5=0 amplitude_cc16=100 ampeg_attack=0 ampeg_release=0.0568305 eg4_time1=0 eg4_time2=0 eg4_time3=0.1643963 eg4_time4=1.9748079 eg4_time5=0.0568305 eg4_level1=1 eg4_level2=1 eg4_level3=1 eg4_level4=1 eg4_level5=1
<region>sample=../Sample/Wave1558.wav lokey=120 hikey=120 pitch_keycenter=96 tune=-6 loop_mode=loop_continuous loop_start=1005 loop_end=1046 pan=0 eg2_cutoff=17328 eg2_sustain=4 eg2_time1=0 eg2_time2=0 eg2_time3=0.3218235 eg2_time4=6.3275436 eg2_time5=5.0162821 eg2_level1=0 eg2_level2=1 eg2_level3=0.7874016 eg2_level4=0 eg2_level5=1 eg3_amplitude=100 eg3_sustain=4 eg3_time1=0 eg3_time2=0 eg3_time3=0.1615141 eg3_time4=1.9401854 eg3_time5=0.0558341 eg3_level1=0 eg3_level2=1 eg3_level3=0.7236346 eg3_level4=0.6299605 eg3_level5=0 amplitude_cc16=100 ampeg_attack=0 ampeg_release=0.0558341 eg4_time1=0 eg4_time2=0 eg4_time3=0.1615141 eg4_time4=1.9401854 eg4_time5=0.0558341 eg4_level1=1 eg4_level2=1 eg4_level3=1 eg4_level4=1 eg4_level5=1
<region>sample=../Sample/Wave1558.wav lokey=121 hikey=121 pitch_keycenter=96 tune=-6 loop_mode=loop_continuous loop_start=1005 loop_end=1046 pan=0 eg2_cutoff=17328 eg2_sustain=4 eg2_time1=0 eg2_time2=0 eg2_time3=0.31899 eg2_time4=6.2718308 eg2_time5=4.9721147 eg2_level1=0 eg2_level2=1 eg2_level3=0.7874016 eg2_level4=0 eg2_level5=1 eg3_amplitude=100 eg3_sustain=4 eg3_time1=0 eg3_time2=0 eg3_time3=0.1586824 eg3_time4=1.9061699 eg3_time5=0.0548553 eg3_level1=0 eg3_level2=1 eg3_level3=0.7236346 eg3_level4=0.6299605 eg3_level5=0 amplitude_cc16=100 ampeg_attack=0 ampeg_release=0.0548553 eg4_time1=0 eg4_time2=0 eg4_time3=0.1586824 eg4_time4=1.9061699 eg4_time5=0.0548553 eg4_level1=1 eg4_level2=1 eg4_level3=1 eg4_level4=1 eg4_level5=1
<region>sample=../Sample/Wave1558.wav lokey=122 hikey=122 pitch_keycenter=96 tune=-6 loop_mode=loop_continuous loop_start=1005 loop_end=1046 pan=0 eg2_cutoff=17328 eg2_sustain=4 eg2_time1=0 eg2_time2=0 eg2_time3=0.3161813 eg2_time4=6.2166085 eg2_time5=4.9283361 eg2_level1=0 eg2_level2=1 eg2_level3=0.7874016 eg2_level4=0 eg2_level5=1 eg3_amplitude=100 eg3_sustain=4 eg3_time1=0 eg3_time2=0 eg3_time3=0.1559004 eg3_time4=1.8727507 eg3_time5=0.0538935 eg3_level1=0 eg3_level2=1 eg3_level3=0.7236346 eg3_level4=0.6299605 eg3_level5=0 amplitude_cc16=100 ampeg_attack=0 ampeg_release=0.0538935 eg4_time1=0 eg4_time2=0 eg4_time3=0.1559004 eg4_time4=1.8727507 eg4_time5=0.0538935 eg4_level1=1 eg4_level2=1 eg4_level3=1 eg4_level4=1 eg4_level5=1
<region>sample=../Sample/Wave1558.wav lokey=123 hikey=123 pitch_keycenter=96 tune=-6 loop_mode=loop_continuous loop_start=1005 loop_end=1046 pan=0 eg2_cutoff=17328 eg2_sustain=4 eg2_time1=0 eg2_time2=0 eg2_time3=0.3133974 eg2_time4=6.1618724 eg2_time5=4.8849431 eg2_level1=0 eg2_level2=1 eg2_level3=0.7874016 eg2_level4=0 eg2_level5=1 eg3_amplitude=100 eg3_sustain=4 eg3_time1=0 eg3_time2=0 eg3_time3=0.1531671 eg3_time4=1.8399175 eg3_time5=0.0529487 eg3_level1=0 eg3_level2=1 eg3_level3=0.7236346 eg3_level4=0.6299605 eg3_level5=0 amplitude_cc16=100 ampeg_attack=0 ampeg_release=0.0529487 eg4_time1=0 eg4_time2=0 eg4_time3=0.1531671 eg4_time4=1.8399175 eg4_time5=0.0529487 eg4_level1=1 eg4_level2=1 eg4_level3=1 eg4_level4=1 eg4_level5=1
<region>sample=../Sample/Wave1558.wav lokey=124 hikey=124 pitch_keycenter=96 tune=-6 loop_mode=loop_continuous loop_start=1005 loop_end=1046 pan=0 eg2_cutoff=17328 eg2_sustain=4 eg2_time1=0 eg2_time2=0 eg2_time3=0.310638 eg2_time4=6.1076183 eg2_time5=4.8419321 eg2_level1=0 eg2_level2=1 eg2_level3=0.7874016 eg2_level4=0 eg2_level5=1 eg3_amplitude=100 eg3_sustain=4 eg3_time1=0 eg3_time2=0 eg3_time3=0.1504818 eg3_time4=1.8076598 eg3_time5=0.0520204 eg3_level1=0 eg3_level2=1 eg3_level3=0.7236346 eg3_level4=0.6299605 eg3_level5=0 amplitude_cc16=100 ampeg_attack=0 ampeg_release=0.0520204 eg4_time1=0 eg4_time2=0 eg4_time3=0.1504818 eg4_time4=1.8076598 eg4_time5=0.0520204 eg4_level1=1 eg4_level2=1 eg4_level3=1 eg4_level4=1 eg4_level5=1
<region>sample=../Sample/Wave1558.wav lokey=125 hikey=125 pitch_keycenter=96 tune=-6 loop_mode=loop_continuous loop_start=1005 loop_end=1046 pan=0 eg2_cutoff=17328 eg2_sustain=4 eg2_time1=0 eg2_time2=0 eg2_time3=0.3079029 eg2_time4=6.0538418 eg2_time5=4.7992997 eg2_level1=0 eg2_level2=1 eg2_level3=0.7874016 eg2_level4=0 eg2_level5=1 eg3_amplitude=100 eg3_sustain=4 eg3_time1=0 eg3_time2=0 eg3_time3=0.1478435 eg3_time4=1.7759678 eg3_time5=0.0511083 eg3_level1=0 eg3_level2=1 eg3_level3=0.7236346 eg3_level4=0.6299605 eg3_level5=0 amplitude_cc16=100 ampeg_attack=0 ampeg_release=0.0511083 eg4_time1=0 eg4_time2=0 eg4_time3=0.1478435 eg4_time4=1.7759678 eg4_time5=0.0511083 eg4_level1=1 eg4_level2=1 eg4_level3=1 eg4_level4=1 eg4_level5=1
<region>sample=../Sample/Wave1558.wav lokey=126 hikey=126 pitch_keycenter=96 tune=-6 loop_mode=loop_continuous loop_start=1005 loop_end=1046 pan=0 eg2_cutoff=17328 eg2_sustain=4 eg2_time1=0 eg2_time2=0 eg2_time3=0.3051918 eg2_time4=6.0005389 eg2_time5=4.7570428 eg2_level1=0 eg2_level2=1 eg2_level3=0.7874016 eg2_level4=0 eg2_level5=1 eg3_amplitude=100 eg3_sustain=4 eg3_time1=0 eg3_time2=0 eg3_time3=0.1452515 eg3_time4=1.7448313 eg3_time5=0.0502123 eg3_level1=0 eg3_level2=1 eg3_level3=0.7236346 eg3_level4=0.6299605 eg3_level5=0 amplitude_cc16=100 ampeg_attack=0 ampeg_release=0.0502123 eg4_time1=0 eg4_time2=0 eg4_time3=0.1452515 eg4_time4=1.7448313 eg4_time5=0.0502123 eg4_level1=1 eg4_level2=1 eg4_level3=1 eg4_level4=1 eg4_level5=1
<region>sample=../Sample/Wave1558.wav lokey=127 hikey=127 pitch_keycenter=96 tune=-6 loop_mode=loop_continuous loop_start=1005 loop_end=1046 pan=0 eg2_cutoff=17328 eg2_sustain=4 eg2_time1=0 eg2_time2=0 eg2_time3=0.3025047 eg2_time4=5.9477053 eg2_time5=4.7151579 eg2_level1=0 eg2_level2=1 eg2_level3=0.7874016 eg2_level4=0 eg2_level5=1 eg3_amplitude=100 eg3_sustain=4 eg3_time1=0 eg3_time2=0 eg3_time3=0.1427049 eg3_time4=1.7142408 eg3_time5=0.049332 eg3_level1=0 eg3_level2=1 eg3_level3=0.7236346 eg3_level4=0.6299605 eg3_level5=0 amplitude_cc16=100 ampeg_attack=0 ampeg_release=0.049332 eg4_time1=0 eg4_time2=0 eg4_time3=0.1427049 eg4_time4=1.7142408 eg4_time5=0.049332 eg4_level1=1 eg4_level2=1 eg4_level3=1 eg4_level4=1 eg4_level5=1
<curve>curve_index=77 v000=-1 v009=-0.2318432 v017=-0.1682223 v025=-0.1266754 v033=-0.0943052 v041=-0.0667365 v049=-0.0418818 v057=-0.0185085 v065=0.004257 v073=0.0271599 v081=0.0509737 v089=0.0766712 v097=0.1057219 v105=0.1408034 v113=0.1881379 v121=0.2706334 v127=1
<curve>curve_index=133 v000=-0.4724409 v127=0.5275591
<curve>curve_index=201 v000=-1 v127=0
<curve>curve_index=202 v000=-1 v001=-0.9997494 v009=-0.991513 v017=-0.9762171 v025=-0.9551519 v033=-0.92858 v041=-0.8964065 v049=-0.8583211 v057=-0.8138437 v065=-0.7623383 v073=-0.7030102 v081=-0.6348936 v089=-0.5568321 v097=-0.467451 v105=-0.3651233 v113=-0.2479268 v121=-0.1135922 v127=0
<curve>curve_index=203 v000=-1 v001=-1 v009=-0.9999675 v017=-0.9996583 v025=-0.9985752 v033=-0.9960114 v041=-0.9910577 v049=-0.9825829 v057=-0.9691807 v065=-0.9490722 v073=-0.9199401 v081=-0.8786619 v089=-0.82088 v097=-0.740303 v105=-0.6275479 v113=-0.4681713 v121=-0.2392198 v127=0
<curve>curve_index=204 v000=-1 v001=-0.9323558 v009=-0.741349 v017=-0.6263141 v025=-0.5373342 v033=-0.4635977 v041=-0.4002693 v049=-0.3446331 v057=-0.2949675 v065=-0.2500953 v073=-0.2091682 v081=-0.1715511 v089=-0.1367543 v097=-0.1043909 v105=-0.0741496 v113=-0.0457759 v121=-0.0190586 v127=0
<curve>curve_index=205 v000=-1 v001=-0.6880006 v009=-0.4427647 v017=-0.3466618 v025=-0.2834429 v033=-0.2361238 v041=-0.1983568 v049=-0.1670059 v057=-0.1402727 v065=-0.1170246 v073=-0.0964998 v081=-0.0781602 v089=-0.061612 v097=-0.0465575 v105=-0.0327669 v113=-0.0200585 v121=-0.0082866 v127=0
<curve>curve_index=206 v000=-1 v001=-0.9992164 v009=-0.9919382 v017=-0.9822354 v025=-0.9686809 v033=-0.9484937 v041=-0.9155493 v049=-0.8540328 v057=-0.7175582 v065=-0.4426581 v073=-0.2171001 v081=-0.1176907 v089=-0.0699434 v097=-0.0428826 v105=-0.0256514 v113=-0.0137704 v121=-0.0051009 v127=0
<curve>curve_index=207 v000=-1 v001=-0.9416361 v009=-0.7228567 v017=-0.6420575 v025=-0.5979344 v033=-0.568666 v041=-0.5466723 v049=-0.5285483 v057=-0.5124439 v065=-0.497147 v073=-0.4816686 v081=-0.4649713 v089=-0.4456677 v097=-0.4214805 v105=-0.3879226 v113=-0.3341321 v121=-0.2242261 v127=0
